<?xml version="1.0" encoding="utf-8"?>
<!-- Generator: Adobe Illustrator 27.5.0, SVG Export Plug-In . SVG Version: 6.00 Build 0)  -->
<svg version="1.1" xmlns="http://www.w3.org/2000/svg" xmlns:xlink="http://www.w3.org/1999/xlink" x="0px" y="0px"
	 viewBox="0 0 3710 3710" style="enable-background:new 0 0 3710 3710;" xml:space="preserve">
<g id="Background">
	<g>
		<g>
			<rect style="fill:#FFFFFF;" width="3710" height="3710"/>
		</g>
	</g>
</g>
<g id="Illustration">
	<g>
		<linearGradient id="SVGID_1_" gradientUnits="userSpaceOnUse" x1="3480.2937" y1="3251.865" x2="1404.363" y2="1435.427">
			<stop  offset="0" style="stop-color:#DAE3FE"/>
			<stop  offset="1" style="stop-color:#E9EFFD"/>
		</linearGradient>
		<path style="fill:url(#SVGID_1_);" d="M3127.494,2308.508c-268.294,631.724-982.967,985.62-1602.732,890.158
			c-100.848-15.534-377.327-61.806-622.111-280.102c-471.225-420.237-572-1252.36-191.877-1838.777
			c276.663-426.809,772.609-668.752,1243.855-656.65c101.506,2.607,490.521,18.673,832.398,300.577
			c50.215,41.406,160.969,139.799,260.785,295.892C3282.198,1386.141,3302.344,1896.805,3127.494,2308.508z"/>
		<g>
			<g>
				<g style="opacity:0.3;">
					<path style="fill:#BDD0FB;" d="M1009.613,872.482c-4.187-1.091-6.959-5.192-6.295-9.563c1.449-9.56,3.337-19.199,5.607-28.648
						c1.105-4.598,5.726-7.43,10.323-6.325c0.055,0.014,0.108,0.028,0.162,0.042c4.501,1.173,7.254,5.739,6.161,10.282
						c-2.158,8.978-3.95,18.134-5.328,27.215c-0.708,4.673-5.072,7.89-9.747,7.18
						C1010.196,872.62,1009.901,872.557,1009.613,872.482z M1028.95,800.46c-0.324-0.084-0.647-0.189-0.967-0.314
						c-4.403-1.721-6.578-6.686-4.857-11.089c3.536-9.044,7.494-18.026,11.764-26.695c2.089-4.242,7.198-5.982,11.462-3.9
						c4.241,2.09,5.984,7.223,3.897,11.461c-4.058,8.241-7.817,16.774-11.177,25.369
						C1037.475,799.375,1033.09,801.539,1028.95,800.46z M1063.664,734.488c-0.922-0.24-1.82-0.64-2.654-1.206
						c-3.908-2.66-4.924-7.983-2.266-11.893c5.447-8.014,11.312-15.891,17.432-23.411c2.987-3.665,8.376-4.213,12.043-1.237
						c3.666,2.984,4.22,8.377,1.236,12.043c-5.812,7.141-11.38,14.619-16.554,22.23
						C1070.811,734.09,1067.068,735.375,1063.664,734.488z M1112.268,677.922c-1.524-0.397-2.956-1.22-4.107-2.459
						c-3.216-3.464-3.014-8.881,0.45-12.097c7.109-6.596,14.587-12.964,22.228-18.928c3.726-2.902,9.103-2.241,12.015,1.483
						c2.908,3.726,2.244,9.105-1.483,12.015c-7.256,5.663-14.361,11.71-21.113,17.981
						C1118.032,677.98,1115.004,678.635,1112.268,677.922z M1172.265,633.617c-2.137-0.557-4.059-1.935-5.251-3.998
						c-2.368-4.093-0.969-9.329,3.123-11.695c8.373-4.843,17.073-9.396,25.855-13.528c4.276-2.017,9.377-0.183,11.39,4.098
						c2.012,4.277,0.178,9.376-4.1,11.392c-8.348,3.927-16.617,8.255-24.574,12.857
						C1176.679,633.917,1174.368,634.165,1172.265,633.617z M1240.564,603.689c-2.768-0.721-5.112-2.811-6.024-5.744
						c-1.403-4.516,1.118-9.311,5.632-10.716c9.251-2.876,18.744-5.392,28.209-7.472c4.62-1.015,9.183,1.906,10.198,6.524
						c1.016,4.615-1.905,9.182-6.522,10.197c-8.995,1.979-18.011,4.366-26.802,7.1
						C1243.673,604.071,1242.057,604.078,1240.564,603.689z M1549.232,663.059c-1.147-0.299-2.248-0.841-3.228-1.636
						c-7.143-5.793-14.635-11.353-22.268-16.521c-3.914-2.651-4.939-7.973-2.288-11.885c2.649-3.916,7.971-4.941,11.887-2.29
						c8.039,5.443,15.931,11.297,23.453,17.396c3.672,2.978,4.234,8.37,1.256,12.041
						C1555.861,662.858,1552.38,663.879,1549.232,663.059z M1313.75,589.651c-3.436-0.895-6.086-3.887-6.375-7.625
						c-0.364-4.715,3.161-8.83,7.874-9.195c9.661-0.748,19.472-1.083,29.16-0.998c4.726,0.063,8.528,3.905,8.486,8.634
						c-0.041,4.727-3.908,8.525-8.636,8.485c-9.201-0.082-18.517,0.237-27.691,0.946
						C1315.594,589.972,1314.644,589.884,1313.75,589.651z M1486.391,622.919c-0.547-0.142-1.088-0.339-1.615-0.597
						c-8.263-4.05-16.812-7.794-25.406-11.136c-4.406-1.715-6.589-6.676-4.877-11.081c1.715-4.404,6.678-6.611,11.08-4.877
						c9.042,3.517,18.037,7.457,26.733,11.717c4.245,2.081,6.001,7.21,3.921,11.453
						C1494.407,622.116,1490.247,623.924,1486.391,622.919z M1388.236,592.312c-4.18-1.089-6.952-5.181-6.297-9.547
						c0.7-4.676,5.057-7.898,9.734-7.201c9.572,1.433,19.212,3.299,28.649,5.551c0.059,0.012,0.119,0.027,0.177,0.043
						c4.494,1.171,7.246,5.727,6.165,10.266c-1.097,4.6-5.712,7.44-10.311,6.342c-8.965-2.136-18.121-3.907-27.217-5.267
						C1388.831,592.449,1388.529,592.388,1388.236,592.312z"/>
					<path style="fill:#BDD0FB;" d="M1592.299,704.988c-1.631-0.425-3.155-1.333-4.335-2.712c-2.87-3.353-5.859-6.699-8.882-9.954
						c-3.218-3.461-3.021-8.88,0.441-12.096c3.462-3.22,8.883-3.027,12.097,0.443c3.181,3.42,6.323,6.941,9.345,10.469
						c3.075,3.59,2.658,8.996-0.932,12.068C1597.821,705.104,1594.92,705.671,1592.299,704.988z"/>
				</g>
				<g style="opacity:0.3;">
					<path style="fill:#BDD0FB;" d="M1671.181,953.751c-3.998-1.042-6.761-4.858-6.353-9.102c0.424-4.392,0.763-8.868,1.005-13.3
						c0.259-4.721,4.296-8.338,9.016-8.079c4.74,0.261,8.337,4.298,8.079,9.016c-0.257,4.666-0.613,9.38-1.058,14.005
						c-0.454,4.706-4.636,8.152-9.342,7.7C1672.066,953.947,1671.616,953.864,1671.181,953.751z"/>
					<path style="fill:#BDD0FB;" d="M1255.572,1244.733c-3.811-0.993-7.62-2.055-11.426-3.185c-4.531-1.347-7.115-6.111-5.77-10.643
						c1.345-4.532,6.136-7.126,10.642-5.772c8.783,2.607,17.652,4.852,26.462,6.691c4.63,0.975,7.596,5.5,6.63,10.127
						c-0.967,4.63-5.503,7.599-10.13,6.631C1266.53,1247.446,1261.01,1246.149,1255.572,1244.733z M1201.803,1225.756
						c-0.463-0.12-0.923-0.282-1.375-0.486c-8.704-3.93-17.339-8.274-25.662-12.91c-4.129-2.299-5.613-7.513-3.314-11.641
						c2.301-4.131,7.526-5.623,11.644-3.313c7.906,4.403,16.109,8.527,24.379,12.265c4.308,1.945,6.223,7.015,4.278,11.321
						C1210.01,1224.851,1205.765,1226.789,1201.803,1225.756z M1316.607,1254.71c-3.905-1.018-6.659-4.696-6.372-8.868
						c0.326-4.718,4.413-8.276,9.13-7.953c9.022,0.623,18.193,0.867,27.262,0.722c4.727-0.067,8.62,3.698,8.695,8.423
						c0.074,4.729-3.698,8.621-8.425,8.696c-9.55,0.151-19.21-0.106-28.711-0.761
						C1317.643,1254.932,1317.115,1254.843,1316.607,1254.71z M1138.641,1188.363c-1.052-0.274-2.066-0.756-2.988-1.449
						c-7.621-5.742-15.088-11.879-22.194-18.239c-3.522-3.153-3.821-8.563-0.667-12.084c3.154-3.525,8.562-3.826,12.086-0.669
						c6.747,6.039,13.837,11.867,21.075,17.319c3.777,2.843,4.531,8.212,1.686,11.987
						C1145.491,1188.081,1141.898,1189.211,1138.641,1188.363z M1389.88,1251.62c-3.203-0.835-5.767-3.5-6.304-6.981
						c-0.721-4.673,2.483-9.045,7.156-9.766c8.933-1.376,17.933-3.157,26.752-5.288c4.595-1.111,9.222,1.712,10.332,6.31
						c1.109,4.594-1.714,9.218-6.309,10.328c-9.284,2.246-18.76,4.12-28.166,5.57
						C1392.151,1251.977,1390.977,1251.906,1389.88,1251.62z M1460.703,1232.526c-2.561-0.667-4.778-2.509-5.818-5.161
						c-1.724-4.402,0.446-9.369,4.848-11.093c8.441-3.308,16.842-7.011,24.967-11.003c4.24-2.091,9.369-0.344,11.458,3.905
						c2.085,4.244,0.336,9.372-3.907,11.459c-8.551,4.202-17.391,8.097-26.274,11.577
						C1464.229,1232.896,1462.392,1232.966,1460.703,1232.526z M1525.678,1198.446c-1.948-0.508-3.724-1.699-4.938-3.501
						c-2.642-3.919-1.604-9.24,2.317-11.881c7.527-5.07,14.92-10.51,21.977-16.177c3.685-2.958,9.07-2.374,12.033,1.318
						c2.958,3.687,2.37,9.073-1.318,12.034c-7.427,5.96-15.208,11.69-23.127,17.024
						C1530.502,1198.691,1527.972,1199.044,1525.678,1198.446z M1581.671,1151.01c-1.349-0.352-2.63-1.038-3.716-2.064
						c-3.435-3.248-3.586-8.664-0.337-12.098c6.233-6.589,12.252-13.517,17.894-20.596c2.947-3.696,8.338-4.303,12.028-1.361
						c3.698,2.947,4.306,8.333,1.359,12.03c-5.942,7.456-12.282,14.753-18.842,21.689
						C1587.832,1150.96,1584.594,1151.772,1581.671,1151.01z M1625.901,1092.417c-0.759-0.198-1.503-0.505-2.211-0.925
						c-4.066-2.41-5.408-7.663-2.996-11.727c4.614-7.782,8.957-15.862,12.908-24.023c2.061-4.256,7.192-6.025,11.434-3.973
						c4.256,2.059,6.034,7.18,3.974,11.436c-4.16,8.591-8.731,17.099-13.59,25.29
						C1633.428,1091.852,1629.498,1093.354,1625.901,1092.417z M1656.157,1025.583c-0.17-0.044-0.339-0.095-0.509-0.15
						c-4.493-1.468-6.946-6.302-5.477-10.794c2.073-6.343,3.974-12.824,5.653-19.269c0.608-2.333,1.188-4.67,1.742-7.003
						c1.093-4.601,5.708-7.445,10.307-6.35c4.678,1.015,7.442,5.706,6.351,10.303c-0.583,2.457-1.193,4.91-1.833,7.366
						c-1.766,6.779-3.768,13.599-5.948,20.27C1665.031,1024.281,1660.501,1026.715,1656.157,1025.583z"/>
					<path style="fill:#BDD0FB;" d="M1085.137,1137.819c-1.647-0.429-3.181-1.35-4.365-2.744c-2.997-3.535-5.976-7.2-8.854-10.893
						c-2.907-3.729-2.24-9.108,1.489-12.013c3.73-2.905,9.105-2.244,12.013,1.489c2.734,3.508,5.565,6.989,8.409,10.346
						c3.057,3.602,2.614,9.005-0.992,12.063C1090.627,1137.94,1087.741,1138.498,1085.137,1137.819z"/>
				</g>
				<g>
					<path style="fill:#BDD0FB;" d="M1121.349,1044.655c0.711,1.551,2.328,2.482,4.026,2.316l48.461-4.74
						c13.935,17.969,30.836,33.846,50.333,46.787l-1.158,48.647c-0.041,1.707,1.006,3.25,2.606,3.845l54.747,20.349
						c1.6,0.594,3.401,0.108,4.484-1.209l30.896-37.594c23.217,2.935,46.384,1.951,68.673-2.555l33.602,35.241
						c1.178,1.235,3.009,1.587,4.561,0.876l53.1-24.323c1.552-0.711,2.482-2.328,2.316-4.027l-4.739-48.461
						c17.969-13.935,33.846-30.836,46.787-50.334l48.648,1.158c1.706,0.041,3.25-1.005,3.845-2.605l20.349-54.747
						c0.595-1.6,0.109-3.401-1.21-4.484l-37.594-30.896c2.935-23.217,1.952-46.384-2.555-68.672l35.241-33.602
						c1.234-1.177,1.587-3.01,0.876-4.561l-24.324-53.1c-0.71-1.553-2.328-2.482-4.026-2.316l-48.461,4.74
						c-13.934-17.97-30.835-33.847-50.333-46.787l1.158-48.648c0.04-1.706-1.005-3.25-2.605-3.845l-54.748-20.348
						c-1.6-0.595-3.4-0.109-4.484,1.21l-30.896,37.594c-23.217-2.936-46.384-1.952-68.673,2.555l-33.601-35.24
						c-1.177-1.236-3.01-1.587-4.562-0.877l-53.1,24.324c-1.552,0.711-2.481,2.328-2.316,4.026l4.739,48.461
						c-17.97,13.935-33.846,30.836-46.787,50.334l-48.648-1.158c-1.705-0.041-3.25,1.006-3.844,2.606l-20.348,54.746
						c-0.595,1.6-0.109,3.401,1.209,4.485l37.594,30.896c-2.935,23.216-1.951,46.383,2.555,68.672l-35.24,33.602
						c-1.236,1.178-1.587,3.009-0.877,4.562L1121.349,1044.655z"/>
					
						<linearGradient id="SVGID_00000074411822532368313770000004182557738685947314_" gradientUnits="userSpaceOnUse" x1="1283.6222" y1="911.3079" x2="1401.0503" y2="911.3079">
						<stop  offset="0" style="stop-color:#DAE3FE"/>
						<stop  offset="1" style="stop-color:#E9EFFD"/>
					</linearGradient>
					<path style="fill:url(#SVGID_00000074411822532368313770000004182557738685947314_);" d="M1327.492,968.114
						c-27.694-7.216-46.712-33.888-43.521-63.166c3.509-32.184,32.543-55.509,64.725-52.002
						c15.592,1.696,29.586,9.368,39.405,21.591c9.822,12.224,14.296,27.542,12.595,43.132
						c-3.509,32.184-32.543,55.509-64.724,52.002C1333.071,969.353,1330.238,968.829,1327.492,968.114z M1353.778,867.766
						c-2.139-0.557-4.329-0.962-6.567-1.207c-24.673-2.69-46.936,15.198-49.626,39.87c-2.689,24.675,15.189,46.945,39.87,49.627
						c24.673,2.691,46.935-15.198,49.626-39.869c1.303-11.955-2.126-23.698-9.657-33.072
						C1371.303,875.498,1363.066,870.186,1353.778,867.766z"/>
					
						<linearGradient id="SVGID_00000146480084290120249910000007587957724737310385_" gradientUnits="userSpaceOnUse" x1="1199.0356" y1="910.7344" x2="1487.8502" y2="910.7344">
						<stop  offset="0" style="stop-color:#DAE3FE"/>
						<stop  offset="1" style="stop-color:#E9EFFD"/>
					</linearGradient>
					<path style="fill:url(#SVGID_00000146480084290120249910000007587957724737310385_);" d="M1307.273,1050.471
						c-4.756-1.239-9.478-2.725-14.148-4.46l0,0c-1.47-0.545-2.931-1.116-4.384-1.709c-7.159-2.926-14.074-6.417-20.638-10.419
						c-0.089-0.054-0.179-0.109-0.268-0.163c-0.253-0.156-0.506-0.312-0.758-0.471c-0.492-0.304-0.981-0.615-1.469-0.925
						c-1.283-0.818-1.836-2.348-1.474-3.746c0.089-0.34,0.232-0.672,0.431-0.983c1.017-1.594,3.134-2.055,4.727-1.042
						c8.201,5.237,17.022,9.622,26.218,13.037c45.671,16.984,94.743,8.043,130.995-19.372c20.166-15.246,36.365-36.21,45.805-61.614
						c1.657-4.454,3.076-8.96,4.256-13.497c7.952-30.532,5.185-62.603-8.133-91.673c-15.296-33.393-42.681-58.832-77.108-71.628
						c-71.105-26.42-150.386,9.917-176.8,80.985c-1.629,4.382-3.03,8.83-4.199,13.325c-5.071,19.476-5.825,39.846-2.135,59.649
						c0.095,0.512,0.072,1.017-0.053,1.489c-0.324,1.242-1.339,2.253-2.686,2.503c-1.861,0.341-3.649-0.875-3.994-2.74
						c-3.874-20.791-3.085-42.178,2.24-62.624c1.228-4.718,2.698-9.386,4.406-13.986c27.732-74.616,111.016-112.743,185.605-85.022
						c36.144,13.433,64.891,40.139,80.948,75.196c13.982,30.519,16.886,64.187,8.539,96.24c-1.241,4.763-2.731,9.492-4.467,14.167
						c-13.435,36.145-40.14,64.894-75.195,80.952C1373.009,1055.925,1339.331,1058.825,1307.273,1050.471z"/>
				</g>
			</g>
			<g>
				<g style="opacity:0.3;">
					<path style="fill:#BDD0FB;" d="M670.066,1017.114c-2.213-0.577-3.876-2.552-3.948-4.955c-0.138-4.486-0.142-9.038-0.01-13.528
						c0.086-2.918,2.519-5.212,5.44-5.129c2.923,0.074,5.214,2.522,5.129,5.44c-0.125,4.279-0.122,8.617,0.008,12.898
						c0.091,2.915-2.203,5.353-5.122,5.446C671.044,1017.3,670.543,1017.238,670.066,1017.114z"/>
					<path style="fill:#BDD0FB;" d="M672.557,976.521c-2.593-0.676-4.305-3.219-3.886-5.921c1.179-7.638,2.765-15.302,4.713-22.776
						c0.41-1.574,0.839-3.148,1.284-4.723c0.799-2.811,3.843-4.297,6.529-3.65c2.81,0.796,4.441,3.718,3.648,6.526
						c-0.427,1.505-0.838,3.01-1.23,4.514c-1.858,7.13-3.37,14.439-4.497,21.722c-0.445,2.888-3.145,4.863-6.031,4.42
						C672.907,976.602,672.73,976.566,672.557,976.521z M687.52,923.705c-0.242-0.063-0.486-0.142-0.721-0.241
						c-2.693-1.134-3.958-4.233-2.827-6.926c3.628-8.637,7.824-17.126,12.471-25.225c1.453-2.535,4.695-3.397,7.216-1.955
						c2.534,1.455,3.408,4.681,1.956,7.216c-4.433,7.728-8.435,15.825-11.896,24.062
						C692.688,923.089,690.023,924.358,687.52,923.705z M714.843,876.096c-0.649-0.169-1.276-0.466-1.846-0.892
						c-2.333-1.755-2.797-5.072-1.042-7.405c5.628-7.471,11.784-14.675,18.301-21.401c2.033-2.101,5.371-2.154,7.476-0.117
						c2.096,2.03,2.149,5.378,0.12,7.474c-6.215,6.416-12.085,13.279-17.45,20.406C719.074,875.923,716.854,876.62,714.843,876.096z
						 M753.037,836.658c-1.06-0.276-2.04-0.883-2.781-1.797c-1.83-2.275-1.471-5.606,0.803-7.436
						c7.302-5.876,15.028-11.348,22.974-16.267c2.484-1.535,5.742-0.761,7.276,1.715c1.538,2.481,0.772,5.739-1.713,7.279
						c-7.573,4.685-14.946,9.908-21.907,15.51C756.333,836.755,754.603,837.066,753.037,836.658z M799.702,807.747
						c-1.479-0.385-2.781-1.408-3.472-2.905c-1.222-2.65-0.062-5.789,2.588-7.014c8.501-3.915,17.323-7.347,26.222-10.192
						c2.784-0.897,5.758,0.641,6.647,3.423c0.889,2.782-0.645,5.759-3.423,6.646c-8.492,2.717-16.907,5.988-25.018,9.728
						C802.092,807.964,800.844,808.044,799.702,807.747z M851.964,791.039c-1.916-0.499-3.472-2.063-3.865-4.139
						c-0.541-2.867,1.347-5.63,4.215-6.173c9.196-1.734,18.589-2.909,27.911-3.489c2.923-0.172,5.423,2.038,5.606,4.95
						c0.182,2.912-2.035,5.424-4.947,5.604c-8.892,0.554-17.842,1.673-26.61,3.326C853.481,791.269,852.696,791.23,851.964,791.039z
						 M906.711,787.617c-2.398-0.625-4.098-2.876-3.939-5.439c0.18-2.914,2.689-5.131,5.604-4.953
						c9.31,0.574,18.706,1.742,27.929,3.468c2.867,0.587,4.762,3.306,4.222,6.174c-0.537,2.869-3.299,4.759-6.169,4.224
						c-8.797-1.652-17.758-2.765-26.635-3.312C907.373,787.758,907.035,787.702,906.711,787.617z M986.31,807.665
						c-0.295-0.077-0.591-0.181-0.879-0.314c-7.004-3.218-14.307-6.108-21.709-8.591c-1.119-0.382-2.222-0.745-3.327-1.092
						c-2.784-0.885-4.326-3.853-3.443-6.638c0.88-2.791,3.893-4.406,6.636-3.446c1.177,0.376,2.35,0.757,3.524,1.158
						c7.732,2.597,15.388,5.626,22.733,9.002c2.654,1.22,3.816,4.356,2.597,7.01C991.356,807.118,988.746,808.3,986.31,807.665z"/>
				</g>
				<g style="opacity:0.3;">
					<path style="fill:#BDD0FB;" d="M839.842,1226.924c-2.793-0.728-4.49-3.571-3.797-6.383c0.698-2.833,3.564-4.567,6.398-3.866
						c8.535,2.106,17.27,3.71,25.963,4.765c2.877,0.376,4.966,2.985,4.612,5.886c-0.353,2.901-2.989,4.962-5.886,4.613
						c-9.117-1.111-18.275-2.788-27.221-4.996C839.889,1226.937,839.864,1226.93,839.842,1226.924z M814.019,1218.878
						c-0.185-0.048-0.365-0.106-0.547-0.175c-8.609-3.257-17.106-7.072-25.257-11.335c-2.586-1.357-3.588-4.547-2.233-7.134
						c1.353-2.593,4.56-3.576,7.135-2.238c7.778,4.07,15.886,7.709,24.1,10.82c2.73,1.031,4.106,4.084,3.072,6.813
						C819.322,1218.184,816.597,1219.549,814.019,1218.878z M893.432,1233.419c-2.268-0.591-3.946-2.65-3.951-5.106
						c-0.007-2.915,2.354-5.288,5.274-5.295c8.796-0.023,17.661-0.578,26.356-1.658c2.905-0.347,5.538,1.699,5.895,4.599
						c0.361,2.895-1.699,5.538-4.596,5.898c-9.114,1.13-18.41,1.712-27.629,1.732
						C894.313,1233.59,893.862,1233.531,893.432,1233.419z M766.176,1193.809c-0.582-0.151-1.148-0.406-1.673-0.766
						c-7.578-5.235-14.908-10.991-21.784-17.11c-2.183-1.94-2.377-5.282-0.437-7.466c1.938-2.173,5.28-2.369,7.463-0.435
						c6.558,5.832,13.545,11.318,20.77,16.312c2.401,1.66,3.004,4.955,1.343,7.355
						C770.561,1193.575,768.264,1194.353,766.176,1193.809z M946.998,1226.766c-1.811-0.472-3.316-1.893-3.8-3.834
						c-0.71-2.836,1.014-5.706,3.845-6.414c8.512-2.125,16.981-4.795,25.177-7.941c2.73-1.049,5.786,0.318,6.831,3.045
						c1.045,2.726-0.318,5.786-3.044,6.831c-8.594,3.293-17.474,6.096-26.398,8.327
						C948.719,1227.001,947.825,1226.981,946.998,1226.766z M997.406,1207.457c-1.386-0.361-2.62-1.28-3.342-2.643
						c-1.366-2.581-0.382-5.781,2.198-7.147c7.773-4.116,15.364-8.738,22.559-13.735c2.401-1.668,5.697-1.071,7.359,1.325
						c1.667,2.398,1.073,5.689-1.324,7.354c-7.544,5.242-15.501,10.089-23.646,14.401
						C999.995,1207.656,998.64,1207.779,997.406,1207.457z M1041.742,1176.625c-0.974-0.254-1.887-0.785-2.606-1.596
						c-1.946-2.177-1.755-5.521,0.424-7.465c6.564-5.85,12.823-12.159,18.602-18.746c1.925-2.188,5.267-2.41,7.459-0.484
						c2.195,1.927,2.413,5.265,0.486,7.462c-6.062,6.904-12.625,13.522-19.507,19.662
						C1045.227,1176.68,1043.395,1177.056,1041.742,1176.625z"/>
					<path style="fill:#BDD0FB;" d="M725.647,1157.74c-0.987-0.257-1.909-0.802-2.634-1.625c-2.988-3.398-5.887-6.901-8.622-10.41
						c-1.793-2.303-1.383-5.626,0.92-7.422c2.304-1.785,5.623-1.379,7.422,0.92c2.606,3.347,5.375,6.688,8.224,9.933
						c1.928,2.193,1.71,5.535-0.482,7.461C729.105,1157.798,727.288,1158.168,725.647,1157.74z"/>
				</g>
				<g>
					<path style="fill:#BDD0FB;" d="M747.121,1092.757c0.475,1.038,1.558,1.661,2.694,1.549l32.428-3.171
						c9.325,12.024,20.634,22.648,33.681,31.308l-0.775,32.552c-0.028,1.142,0.673,2.175,1.743,2.573l36.634,13.616
						c1.071,0.398,2.276,0.072,3.001-0.809l20.674-25.156c15.536,1.964,31.038,1.306,45.953-1.71l22.484,23.581
						c0.788,0.826,2.014,1.062,3.053,0.586l35.532-16.276c1.039-0.476,1.661-1.558,1.549-2.694l-3.171-32.428
						c12.024-9.324,22.649-20.634,31.308-33.681l32.553,0.775c1.142,0.027,2.175-0.673,2.573-1.743l13.616-36.635
						c0.398-1.071,0.073-2.276-0.81-3l-25.156-20.675c1.964-15.536,1.306-31.038-1.71-45.952l23.582-22.486
						c0.826-0.788,1.062-2.014,0.586-3.052l-16.276-35.533c-0.475-1.038-1.558-1.66-2.694-1.549l-32.428,3.172
						c-9.324-12.025-20.633-22.648-33.681-31.308l0.775-32.553c0.027-1.141-0.672-2.175-1.743-2.573l-36.635-13.616
						c-1.07-0.398-2.275-0.073-3.001,0.81l-20.674,25.156c-15.536-1.964-31.039-1.306-45.953,1.709l-22.484-23.581
						c-0.788-0.827-2.014-1.063-3.053-0.587l-35.532,16.276c-1.038,0.476-1.661,1.558-1.549,2.695l3.171,32.428
						c-12.025,9.324-22.648,20.634-31.307,33.681l-32.553-0.775c-1.141-0.027-2.175,0.673-2.572,1.744l-13.616,36.633
						c-0.398,1.071-0.073,2.276,0.81,3.001l25.156,20.675c-1.964,15.535-1.306,31.037,1.709,45.952l-23.581,22.485
						c-0.827,0.788-1.062,2.014-0.587,3.052L747.121,1092.757z"/>
					
						<linearGradient id="SVGID_00000025432994217114086800000014394167284826715826_" gradientUnits="userSpaceOnUse" x1="854.9999" y1="1003.5283" x2="934.9865" y2="1003.5283">
						<stop  offset="0" style="stop-color:#DAE3FE"/>
						<stop  offset="1" style="stop-color:#E9EFFD"/>
					</linearGradient>
					<path style="fill:url(#SVGID_00000025432994217114086800000014394167284826715826_);" d="M884.828,1042.21
						c-8.253-2.151-15.571-6.869-21.01-13.637c-6.69-8.327-9.736-18.762-8.577-29.381c2.386-21.915,22.162-37.804,44.085-35.421
						c21.946,2.432,37.813,22.172,35.422,44.091c-1.156,10.621-6.38,20.154-14.707,26.841c-8.327,6.692-18.763,9.74-29.384,8.579
						C888.674,1043.063,886.724,1042.704,884.828,1042.21z M902.429,975.063c-1.377-0.359-2.794-0.621-4.249-0.781
						c-16.125-1.753-30.671,9.934-32.429,26.059c-0.85,7.808,1.388,15.488,6.31,21.609c4.923,6.127,11.936,9.961,19.746,10.822l0,0
						c7.811,0.851,15.488-1.391,21.612-6.309c6.127-4.923,9.969-11.936,10.82-19.749
						C925.837,992.046,916.305,978.679,902.429,975.063z"/>
					
						<linearGradient id="SVGID_00000030460800679596347210000004073858498518876303_" gradientUnits="userSpaceOnUse" x1="796.1092" y1="1003.0913" x2="995.3637" y2="1003.0913">
						<stop  offset="0" style="stop-color:#DAE3FE"/>
						<stop  offset="1" style="stop-color:#E9EFFD"/>
					</linearGradient>
					<path style="fill:url(#SVGID_00000030460800679596347210000004073858498518876303_);" d="M870.68,1099.517
						c-3.237-0.844-6.457-1.859-9.659-3.045c-6.356-2.36-12.478-5.37-18.21-8.955c-0.256-0.163-0.513-0.326-0.769-0.489
						c-1.981-1.263-2.835-3.625-2.276-5.784c0.137-0.524,0.358-1.037,0.665-1.518c1.57-2.461,4.838-3.168,7.299-1.609
						c5.32,3.398,11.031,6.235,16.971,8.44l0.003,0.001c0.326,0.122,0.655,0.24,0.98,0.356c14.106,5.09,28.947,6.47,43.387,4.258
						c7.838-1.202,15.562-3.468,22.987-6.788c0.061-0.027,0.121-0.054,0.181-0.081c0.185-0.086,0.369-0.166,0.551-0.251
						c21.617-9.904,38.086-27.631,46.369-49.919c1.074-2.884,1.991-5.798,2.757-8.736c5.148-19.765,3.355-40.528-5.265-59.351
						c-9.904-21.617-27.633-38.081-49.918-46.364c-22.276-8.27-46.468-7.392-68.086,2.506
						c-21.617,9.904-38.086,27.631-46.369,49.919c-1.056,2.835-1.961,5.716-2.719,8.623c-3.283,12.611-3.771,25.796-1.382,38.615
						c0.146,0.79,0.111,1.571-0.081,2.3c-0.5,1.919-2.067,3.479-4.147,3.865c-2.872,0.527-5.631-1.355-6.167-4.232
						c-2.673-14.344-2.128-29.098,1.542-43.203c0.849-3.257,1.861-6.478,3.04-9.649c9.27-24.939,27.694-44.771,51.882-55.851
						c24.185-11.076,51.229-12.096,76.17-2.806c24.937,9.267,44.77,27.688,55.847,51.878c9.647,21.054,11.651,44.283,5.891,66.397
						c-0.855,3.282-1.882,6.547-3.08,9.772C971.126,1086.091,919.486,1112.235,870.68,1099.517z"/>
				</g>
			</g>
		</g>
		<g>
			<g>
				
					<linearGradient id="SVGID_00000130606917354333385880000017560727042859239564_" gradientUnits="userSpaceOnUse" x1="1613.0426" y1="2535.6614" x2="2195.7915" y2="787.4095">
					<stop  offset="0" style="stop-color:#09005D"/>
					<stop  offset="1" style="stop-color:#1A0F91"/>
				</linearGradient>
				<path style="fill:url(#SVGID_00000130606917354333385880000017560727042859239564_);" d="M3117.748,2599.083
					c0,25.071-20.533,45.585-45.628,45.585H604.708c-25.096,0-45.629-20.513-45.629-45.585L538.549,1181.13
					c0-25.072,29.539-74.018,83.673-70.339l2411.427-62.396c31.488-0.815,61.932,11.305,84.23,33.53
					c22.298,22.225,34.498,52.613,33.754,84.072L3117.748,2599.083z"/>
				<path style="fill:#91B3FA;" d="M3072.7,2555.35c0,23.742-19.425,43.167-43.167,43.167H664.211
					c-23.742,0-43.167-19.425-43.167-43.167l-19.374-1287.23c2.282-77.463,70.195-105.303,111.363-103.659l2311.201-62.006
					c22.122-0.594,43.517,7.923,59.178,23.558c15.662,15.634,24.216,37.014,23.661,59.137L3072.7,2555.35z"/>
				<g>
					<path style="fill:#BDD0FB;" d="M646.606,1941.57c-2.222,0-4.04-1.784-4.072-4.013L641,1833.163
						c-0.033-2.249,1.764-4.099,4.014-4.133c2.175-0.121,4.1,1.764,4.133,4.013l1.534,104.393c0.033,2.249-1.764,4.099-4.014,4.133
						C646.647,1941.57,646.626,1941.57,646.606,1941.57z"/>
					<path style="fill:#BDD0FB;" d="M642.849,1685.754c-2.222,0-4.039-1.784-4.073-4.014l-5.871-399.821
						c0.122-26.879,8.409-48.351,24.632-63.897c29.476-28.243,75.563-26.825,77.508-26.749l738.011-19.806
						c2.228-0.201,4.12,1.713,4.182,3.962c0.06,2.249-1.714,4.121-3.963,4.181l-738.249,19.806
						c-2.099-0.084-44.845-1.392-71.852,24.49c-14.567,13.958-22.011,33.464-22.122,57.971l5.871,399.743
						c0.033,2.25-1.764,4.099-4.013,4.133C642.89,1685.754,642.869,1685.754,642.849,1685.754z"/>
				</g>
				<path style="fill:#BDD0FB;" d="M788.658,2304.459c2.1-90.199,1.318-888.936-3.858-957.919
					c-5.175-68.982,102.26-81.921,267.207-89.685c164.946-7.763,1556.664-38.498,1592.498-41.404
					c80.546-6.531,97.219,113.861,89.16,375.223c-6.054,196.358-16.088,519.824-20.705,668.579
					c-1.374,44.292-37.577,79.435-81.89,79.557c-334.905,0.92-1618.494,4.599-1703.943,7.144
					C828.792,2348.883,787.825,2340.225,788.658,2304.459z"/>
			</g>
			
				<linearGradient id="SVGID_00000083778245028172946820000018439322539551687586_" gradientUnits="userSpaceOnUse" x1="1746.6552" y1="3277.4329" x2="1959.8344" y2="2111.821">
				<stop  offset="0" style="stop-color:#09005D"/>
				<stop  offset="1" style="stop-color:#1A0F91"/>
			</linearGradient>
			<path style="fill:url(#SVGID_00000083778245028172946820000018439322539551687586_);" d="M3194.003,2762.375H510.492
				c-33.02,0-60.036-28.032-60.036-62.293l0,0c0-34.261,27.016-62.293,60.036-62.293h2683.511c33.02,0,60.036,28.032,60.036,62.293
				l0,0C3254.039,2734.343,3227.022,2762.375,3194.003,2762.375z"/>
		</g>
		<g>
			<g>
				<g>
					<path style="fill:#91B3FA;" d="M2192.213,2704.031l916.636,0.002v-176.732l-916.636,0.001
						C2211.833,2527.302,2211.833,2704.031,2192.213,2704.031z"/>
					
						<linearGradient id="SVGID_00000001643019050344695100000015122046187581137064_" gradientUnits="userSpaceOnUse" x1="2736.5229" y1="2304.9622" x2="2979.5923" y2="1201.0178">
						<stop  offset="0" style="stop-color:#4F52FF"/>
						<stop  offset="1" style="stop-color:#4042E2"/>
					</linearGradient>
					<path style="fill:url(#SVGID_00000001643019050344695100000015122046187581137064_);" d="M3108.85,2659.807v-80.88
						c0-28.512-18.114-51.624-40.459-51.624h-872.312c-17.572,0-31.817-13.722-31.817-30.65c0-5.143,4.328-9.312,9.667-9.312
						h953.369c21.864,0,56.576,33.113,56.576,73.96v112.958c0,38.512-33.699,69.734-54.314,69.734h-950.616
						c-8.109,0-14.683-6.333-14.683-14.144c0-14.259,12-25.818,26.801-25.818h883.127
						C3093.332,2704.031,3108.85,2684.231,3108.85,2659.807z"/>
				</g>
				<path style="fill:#FFFFFF;" d="M3083.428,2566.941h-859.472c-1.866,0-3.376-1.51-3.376-3.376c0-1.866,1.51-3.376,3.376-3.376
					h859.472c1.866,0,3.376,1.51,3.376,3.376C3086.805,2565.431,3085.294,2566.941,3083.428,2566.941z"/>
				<path style="fill:#FFFFFF;" d="M3083.428,2593.172h-859.472c-1.866,0-3.376-1.51-3.376-3.376c0-1.866,1.51-3.376,3.376-3.376
					h859.472c1.866,0,3.376,1.51,3.376,3.376C3086.805,2591.662,3085.294,2593.172,3083.428,2593.172z"/>
				<path style="fill:#FFFFFF;" d="M3083.428,2619.403h-859.472c-1.866,0-3.376-1.51-3.376-3.376c0-1.866,1.51-3.376,3.376-3.376
					h859.472c1.866,0,3.376,1.51,3.376,3.376C3086.805,2617.893,3085.294,2619.403,3083.428,2619.403z"/>
				<path style="fill:#FFFFFF;" d="M3083.428,2645.637h-859.472c-1.866,0-3.376-1.51-3.376-3.376c0-1.866,1.51-3.376,3.376-3.376
					h859.472c1.866,0,3.376,1.51,3.376,3.376C3086.805,2644.127,3085.294,2645.637,3083.428,2645.637z"/>
				<path style="fill:#FFFFFF;" d="M3083.428,2671.868h-859.472c-1.866,0-3.376-1.51-3.376-3.376c0-1.866,1.51-3.376,3.376-3.376
					h859.472c1.866,0,3.376,1.51,3.376,3.376C3086.805,2670.358,3085.294,2671.868,3083.428,2671.868z"/>
			</g>
			<g>
				
					<linearGradient id="SVGID_00000124881024096583004750000008892059863888913550_" gradientUnits="userSpaceOnUse" x1="2842.0637" y1="3427.1997" x2="2690.5608" y2="3007.9229">
					<stop  offset="0" style="stop-color:#4F52FF"/>
					<stop  offset="1" style="stop-color:#4042E2"/>
				</linearGradient>
				<path style="fill:url(#SVGID_00000124881024096583004750000008892059863888913550_);" d="M3238.154,3037.409H2057.573
					c-11.814,0-21.391-9.577-21.391-21.391V2763.5c0-11.814,9.577-21.391,21.391-21.391h1180.581
					c11.814,0,21.391,9.577,21.391,21.391v252.518C3259.544,3027.832,3249.968,3037.409,3238.154,3037.409z"/>
				<path style="fill:#7D97F4;" d="M2293.708,3003.47h-94.819c-13.503,0-24.449-10.946-24.449-24.449v-178.524
					c0-13.503,10.946-24.449,24.449-24.449h94.819c13.503,0,24.45,10.947,24.45,24.45v178.524
					C2318.157,2992.524,2307.211,3003.47,2293.708,3003.47z"/>
				<path style="fill:#7D97F4;" d="M2373.334,3003.47h-14.153c-10.982,0-19.885-8.903-19.885-19.885v-187.652
					c0-10.982,8.903-19.885,19.885-19.885h14.153c10.982,0,19.885,8.903,19.885,19.885v187.652
					C2393.22,2994.567,2384.317,3003.47,2373.334,3003.47z"/>
			</g>
		</g>
		<g>
			
				<linearGradient id="SVGID_00000008862592010513122960000000790347338615150244_" gradientUnits="userSpaceOnUse" x1="3106.4907" y1="612.3839" x2="1941.7731" y2="2121.4524">
				<stop  offset="0" style="stop-color:#FF928E"/>
				<stop  offset="1" style="stop-color:#FE7062"/>
			</linearGradient>
			<path style="fill:url(#SVGID_00000008862592010513122960000000790347338615150244_);" d="M3211.308,1397.309l-772.586,14.24
				c-20.592,0.38-37.502-15.273-37.502-34.714V593.424c0-19.38,16.808-35.009,37.338-34.717l772.586,10.977
				c20.097,0.286,36.23,15.745,36.23,34.717v758.193C3247.374,1381.507,3231.34,1396.94,3211.308,1397.309z"/>
			<g>
				<path style="opacity:0.69;fill:#FFFFFF;" d="M2509.39,1123.084l638.607,6.787c24.593,0.261,43.981,14.49,42.778,31.394
					l-10.633,149.429c-1.135,15.943-20.252,28.469-43.45,28.469h-627.973c-24.025,0-43.502-13.402-43.502-29.933v-156.216
					C2465.217,1136.302,2485.105,1122.826,2509.39,1123.084z"/>
				<g>
					
						<ellipse transform="matrix(0.9523 -0.3052 0.3052 0.9523 -74.4611 979.5626)" style="fill:#FFFFFF;" cx="3096.019" cy="727.954" rx="103.105" ry="103.104"/>
					
						<ellipse transform="matrix(0.7071 -0.7071 0.7071 0.7071 317.0091 2221.2361)" style="fill:#FFFFFF;" cx="2839.774" cy="727.954" rx="103.104" ry="103.104"/>
					
						<ellipse transform="matrix(0.7071 -0.7071 0.7071 0.7071 239.5704 2041.0319)" style="fill:#FFFFFF;" cx="2583.529" cy="731.329" rx="103.105" ry="103.105"/>
					<g>
						
							<linearGradient id="SVGID_00000089553080897028284730000003038708278952751782_" gradientUnits="userSpaceOnUse" x1="3013.0156" y1="731.329" x2="3179.0215" y2="731.329">
							<stop  offset="0" style="stop-color:#FEBBBA"/>
							<stop  offset="1" style="stop-color:#FF928E"/>
						</linearGradient>
						<path style="fill:url(#SVGID_00000089553080897028284730000003038708278952751782_);" d="M3034.755,706.164
							c-3.191,7.76-4.963,16.254-4.963,25.165c0,36.577,29.651,66.227,66.227,66.227c36.576,0,66.227-29.651,66.227-66.227
							c0-36.576-29.651-66.227-66.227-66.227c-1.12,0-2.234,0.03-3.34,0.085v-16.788c1.109-0.044,2.221-0.072,3.34-0.072
							c45.842,0,83.003,37.162,83.003,83.003c0,45.841-37.161,83.003-83.003,83.003c-45.841,0-83.003-37.162-83.003-83.003
							c0-11.287,2.258-22.047,6.338-31.856L3034.755,706.164z"/>
						
							<linearGradient id="SVGID_00000144330996936596710930000004953828374506493066_" gradientUnits="userSpaceOnUse" x1="2797.2876" y1="731.329" x2="2923.9009" y2="731.329">
							<stop  offset="0" style="stop-color:#FEBBBA"/>
							<stop  offset="1" style="stop-color:#FF928E"/>
						</linearGradient>
						<path style="fill:url(#SVGID_00000144330996936596710930000004953828374506493066_);" d="M2805.611,787.361
							c10.218,6.449,22.312,10.195,35.287,10.195c36.576,0,66.227-29.651,66.227-66.227c0-36.576-29.651-66.227-66.227-66.227
							c-1.12,0-2.234,0.03-3.34,0.085v-16.788c1.108-0.044,2.221-0.072,3.34-0.072c45.842,0,83.003,37.162,83.003,83.003
							c0,45.841-37.161,83.003-83.003,83.003c-15.999,0-30.937-4.531-43.61-12.373L2805.611,787.361z"/>
						
							<linearGradient id="SVGID_00000013168511627383482450000001903338383118373052_" gradientUnits="userSpaceOnUse" x1="2514.6685" y1="731.329" x2="2666.0349" y2="731.329">
							<stop  offset="0" style="stop-color:#FEBBBA"/>
							<stop  offset="1" style="stop-color:#FF928E"/>
						</linearGradient>
						<path style="fill:url(#SVGID_00000013168511627383482450000001903338383118373052_);" d="M2528.263,768.564
							c11.92,17.498,32,28.992,54.769,28.992c36.576,0,66.227-29.651,66.227-66.227c0-36.576-29.651-66.227-66.227-66.227
							c-1.12,0-2.234,0.03-3.341,0.085v-16.788c1.108-0.044,2.221-0.072,3.341-0.072c45.841,0,83.003,37.162,83.003,83.003
							c0,45.841-37.162,83.003-83.003,83.003c-28.359,0-53.391-14.225-68.364-35.926L2528.263,768.564z"/>
					</g>
				</g>
				<g style="opacity:0.69;">
					<path style="fill:#FFFFFF;" d="M3012.01,874.734h168.018c10.546,0,19.095,8.549,19.095,19.096
						c0,10.546-8.549,19.095-19.095,19.095H3012.01c-10.546,0-19.096-8.549-19.096-19.095
						C2992.914,883.283,3001.463,874.734,3012.01,874.734z"/>
					<path style="fill:#FFFFFF;" d="M2755.765,874.734h168.018c10.546,0,19.095,8.549,19.095,19.096
						c0,10.546-8.549,19.095-19.095,19.095h-168.018c-10.547,0-19.096-8.549-19.096-19.095
						C2736.669,883.283,2745.218,874.734,2755.765,874.734z"/>
					<path style="fill:#FFFFFF;" d="M2667.538,912.924h-168.018c-10.546,0-19.095-8.549-19.095-19.095
						c0-10.546,8.549-19.096,19.095-19.096h168.018c10.546,0,19.096,8.549,19.096,19.096
						C2686.633,904.375,2678.083,912.924,2667.538,912.924z"/>
					<path style="fill:#FFFFFF;" d="M3012.01,934.141h168.018c10.546,0,19.095,8.549,19.095,19.096v112.45
						c0,10.547-8.549,19.095-19.095,19.095H3012.01c-10.546,0-19.096-8.549-19.096-19.095v-112.45
						C2992.914,942.691,3001.463,934.141,3012.01,934.141z"/>
					<path style="fill:#FFFFFF;" d="M2755.765,934.141h168.018c10.546,0,19.095,8.549,19.095,19.096v112.45
						c0,10.547-8.549,19.095-19.095,19.095h-168.018c-10.547,0-19.096-8.549-19.096-19.095v-112.45
						C2736.669,942.691,2745.218,934.141,2755.765,934.141z"/>
					<path style="fill:#FFFFFF;" d="M2499.519,934.141h168.018c10.546,0,19.096,8.549,19.096,19.096v112.45
						c0,10.547-8.55,19.095-19.096,19.095h-168.018c-10.546,0-19.095-8.549-19.095-19.095v-112.45
						C2480.424,942.691,2488.974,934.141,2499.519,934.141z"/>
				</g>
			</g>
		</g>
		<g>
			<defs>
				
					<rect id="SVGID_00000084511546280475323440000011593771488051508868_" x="1227.31" y="665.367" width="1771.067" height="1681.115"/>
			</defs>
			<clipPath id="SVGID_00000013165587537516868570000009677294587157016205_">
				<use xlink:href="#SVGID_00000084511546280475323440000011593771488051508868_"  style="overflow:visible;"/>
			</clipPath>
			<g style="clip-path:url(#SVGID_00000013165587537516868570000009677294587157016205_);">
				<g>
					
						<linearGradient id="SVGID_00000044176856550615310190000008742149119061646261_" gradientUnits="userSpaceOnUse" x1="8648.9385" y1="1979.3962" x2="7304.2432" y2="3876.6172" gradientTransform="matrix(0.9849 -0.1731 0.1731 0.9849 -6225.8472 669.1506)">
						<stop  offset="0" style="stop-color:#09005D"/>
						<stop  offset="1" style="stop-color:#1A0F91"/>
					</linearGradient>
					<path style="fill:url(#SVGID_00000044176856550615310190000008742149119061646261_);" d="M2132.596,1696.468
						c-6.483-6.307-6.186-16.81,0.645-22.738L2940.3,953.638c2.263-2.019,5.519-2.482,8.254-1.173l0,0
						c4.803,2.299,5.763,8.722,1.843,12.324l-796.578,731.98C2147.785,1702.315,2138.47,1702.181,2132.596,1696.468
						L2132.596,1696.468z"/>
					
						<linearGradient id="SVGID_00000139272830807714846820000010271162877712539829_" gradientUnits="userSpaceOnUse" x1="1530.0164" y1="2123.9138" x2="2856.781" y2="1257.9738">
						<stop  offset="0" style="stop-color:#FEBBBA"/>
						<stop  offset="1" style="stop-color:#FF928E"/>
					</linearGradient>
					<path style="fill:url(#SVGID_00000139272830807714846820000010271162877712539829_);" d="M1798.564,1730.759
						c0,0,239.005,86.536,351.163,45.544c5.022-1.834,9.81-3.907,14.29-6.274c104.543-55.208,117.343-204.554,117.343-204.554
						l46.938,9.296c0,0,15.32,240.175-149.255,343.371c-80.989,50.784-205.532,68.404-396.925,7.891L1798.564,1730.759z"/>
					
						<linearGradient id="SVGID_00000090281456691808767400000002743582718453713065_" gradientUnits="userSpaceOnUse" x1="1498.2017" y1="2075.1709" x2="2824.9658" y2="1209.2312">
						<stop  offset="0" style="stop-color:#FEBBBA"/>
						<stop  offset="1" style="stop-color:#FF928E"/>
					</linearGradient>
					<path style="fill:url(#SVGID_00000090281456691808767400000002743582718453713065_);" d="M2283.742,1578.493l-2.382-13.018
						c0,0-9.79-31.797,16.108-63.099c37.434-45.246,64.833-28.608,64.833-28.608s-1.945,9.679-1.812,18.259
						c0.107,6.924,8.407,10.429,13.507,5.743l61.095-56.141c0,0,17.106,89.162-113.915,150.448L2283.742,1578.493z"/>
				</g>
				
					<linearGradient id="SVGID_00000004513765905711953720000011065706425440504478_" gradientUnits="userSpaceOnUse" x1="-8815.4004" y1="1156.6385" x2="-8655.6123" y2="1557.4622" gradientTransform="matrix(-1 0 0 1 -7071.793 0)">
					<stop  offset="0" style="stop-color:#09005D"/>
					<stop  offset="1" style="stop-color:#1A0F91"/>
				</linearGradient>
				<path style="fill:url(#SVGID_00000004513765905711953720000011065706425440504478_);" d="M1648.863,1372.25
					c0,0-53.868,26.202-63.773,56.302c-7.947,24.151-67.511,27.264-73.395,74.762c-3.037,24.522-21.183,44.163-45.61,47.907
					c-60.836,9.324-154.589,40.914-169.588,146.537c-11.45,80.62,29.651,111.191,72.782,121.771
					c31.68,7.772,52.734,38.586,46.324,70.569c-6.145,30.677,3.019,66.139,56.165,94.184
					c119.095,62.842,238.031-148.879,238.031-148.879l24.375-369.679L1648.863,1372.25z"/>
				
					<linearGradient id="SVGID_00000160883080704897813410000017137706022252222377_" gradientUnits="userSpaceOnUse" x1="-4167.8535" y1="3626.6042" x2="-4240.3711" y2="3302.8638" gradientTransform="matrix(-1 0 0 1 -3051.5828 0)">
					<stop  offset="0" style="stop-color:#53D8FF"/>
					<stop  offset="1" style="stop-color:#3840F7"/>
				</linearGradient>
				<path style="fill:url(#SVGID_00000160883080704897813410000017137706022252222377_);" d="M1159.332,3690.256l-7.708,63.356
					c-1.461,12.019-10.924,21.522-22.954,22.897c-20.31,2.32-52.903,4.698-84.791,1.327c-13.998-1.479-23.084-15.653-18.822-29.067
					c7.774-24.458,21.996-61.172,42.501-82.778h70.281C1150.833,3665.99,1160.901,3677.356,1159.332,3690.256z"/>
				
					<linearGradient id="SVGID_00000127744264514115080640000011372993367055183275_" gradientUnits="userSpaceOnUse" x1="-8819.9258" y1="4255.6816" x2="-8624.9414" y2="1976.7975" gradientTransform="matrix(-1 0 0 1 -7071.793 0)">
					<stop  offset="0" style="stop-color:#FEBBBA"/>
					<stop  offset="1" style="stop-color:#FF928E"/>
				</linearGradient>
				<path style="fill:url(#SVGID_00000127744264514115080640000011372993367055183275_);" d="M1598.607,3436.533h85.683
					c14.086-182.798,37.372-418.67,37.372-418.67l-11.863-69.779l-83.089,56.958l-36.311,68.216
					c-12.488,23.457-17.952,50.013-15.741,76.493L1598.607,3436.533z"/>
				
					<linearGradient id="SVGID_00000042001350226423966990000016866174318920299158_" gradientUnits="userSpaceOnUse" x1="-4751.6851" y1="3649.7124" x2="-4648.0884" y2="3970.8625" gradientTransform="matrix(-1 0 0 1 -3051.5828 0)">
					<stop  offset="0" style="stop-color:#53D8FF"/>
					<stop  offset="1" style="stop-color:#3840F7"/>
				</linearGradient>
				<path style="fill:url(#SVGID_00000042001350226423966990000016866174318920299158_);" d="M1774.171,3781.293h-56.022
					c-10.487,0-20.375-4.814-26.772-13.125c-17.464-22.694-53.648-66.967-70.951-68.123c-23.292-1.556-20.312,81.248-20.312,81.248
					h-13.055l-16.538-102.893c-4.16-25.889,8.713-51.535,31.962-63.666l0,0c0,0,5.324,39.376,34.194,56.793
					c28.869,17.417,117.481,79.791,117.481,79.791s10.855-1.549,22.77,0.606C1794.603,3755.117,1792.134,3781.293,1774.171,3781.293
					z"/>
				
					<linearGradient id="SVGID_00000093149941934266709180000001597471819906032311_" gradientUnits="userSpaceOnUse" x1="-8474.582" y1="4285.584" x2="-8279.5459" y2="2006.0961" gradientTransform="matrix(-1 0 0 1 -7071.793 0)">
					<stop  offset="0" style="stop-color:#FEBBBA"/>
					<stop  offset="1" style="stop-color:#FF928E"/>
				</linearGradient>
				<path style="fill:url(#SVGID_00000093149941934266709180000001597471819906032311_);" d="M1238.009,3436.533
					c77.371-163.241,231.341-455.308,231.341-455.308c-53.129-65.248-119.748,0-119.748,0
					c-97.045,74.228-122.235,154.812-144.521,229.1c-13.829,46.099-34.723,145.864-53.103,226.208H1238.009z"/>
				
					<linearGradient id="SVGID_00000124133461705134487840000011876231807098421135_" gradientUnits="userSpaceOnUse" x1="2444.5525" y1="529.0236" x2="2054.6262" y2="1308.8746">
					<stop  offset="0" style="stop-color:#FF928E"/>
					<stop  offset="1" style="stop-color:#FE7062"/>
				</linearGradient>
				<path style="fill:url(#SVGID_00000124133461705134487840000011876231807098421135_);" d="M1616.364,2257.892
					c60.031-254.376-92.046-398.248-92.046-398.248c77.103-74.011,205.132-115.613,252.467-129.105
					c11.61-3.309,24.027-0.754,33.419,6.831c40.606,32.793,148.047,128.012,131.943,205.686
					c-11.598,55.953-117.265,335.149-117.265,335.149S1727.174,2324.446,1616.364,2257.892z"/>
				
					<linearGradient id="SVGID_00000073698346024283264550000001694180741500529555_" gradientUnits="userSpaceOnUse" x1="2517.4126" y1="1722.4867" x2="2092.0383" y2="2173.1812">
					<stop  offset="0" style="stop-color:#FF928E"/>
					<stop  offset="1" style="stop-color:#FE7062"/>
				</linearGradient>
				<path style="fill:url(#SVGID_00000073698346024283264550000001694180741500529555_);" d="M1483.266,2383.826
					c24.432-73.598,133.098-125.935,133.098-125.935c110.811,66.554,208.519,20.313,208.519,20.313s21.912,83.755,6.788,161.592
					c-15.123,77.835-110.009,578.066-110.009,578.066c-149.508,30.294-379.449-30.478-379.449-30.478
					C1437.444,2818.309,1458.835,2457.426,1483.266,2383.826z"/>
				
					<linearGradient id="SVGID_00000024711878878644142360000005724622295719940271_" gradientUnits="userSpaceOnUse" x1="-8825.1992" y1="2010.761" x2="-8788.5723" y2="1742.8046" gradientTransform="matrix(-1 0 0 1 -7071.793 0)">
					<stop  offset="0" style="stop-color:#FEBBBA"/>
					<stop  offset="1" style="stop-color:#FF928E"/>
				</linearGradient>
				<path style="fill:url(#SVGID_00000024711878878644142360000005724622295719940271_);" d="M1686.045,1557.522l-48.808,219.23
					c-4.672,19.309,12.932,16.15,32.455,12.469c31.972-6.027,73.181-18.442,86.954-43.32c1.402-2.532,2.102-5.394,2.498-8.262
					l20.968-152.019c1.665-12.06-4.854-23.765-15.986-28.7l-40.462-17.942C1708.085,1532.07,1690.052,1540.958,1686.045,1557.522z"
					/>
				<g>
					
						<linearGradient id="SVGID_00000065772436859451166400000016865831436825646474_" gradientUnits="userSpaceOnUse" x1="-8843.9023" y1="70.2763" x2="-8524.3135" y2="-498.4854" gradientTransform="matrix(-0.9809 -0.1943 -0.1943 0.9809 -6842.7031 -99.2406)">
						<stop  offset="0" style="stop-color:#FEBBBA"/>
						<stop  offset="1" style="stop-color:#FF928E"/>
					</linearGradient>
					<path style="fill:url(#SVGID_00000065772436859451166400000016865831436825646474_);" d="M1779.529,1357.671
						c0,0,51.961,35.173,74.287,124.745c22.326,89.572-13.958,121.702-51.151,119.733c-37.193-1.969-91.12-13.471-137.845-77.731
						C1618.096,1460.16,1711.44,1314.692,1779.529,1357.671z"/>
					
						<linearGradient id="SVGID_00000072271077162295100120000001962418720161571205_" gradientUnits="userSpaceOnUse" x1="-8775.1709" y1="-425.0234" x2="-8615.377" y2="-24.1841" gradientTransform="matrix(-0.9809 -0.1943 -0.1943 0.9809 -6842.7031 -99.2406)">
						<stop  offset="0" style="stop-color:#09005D"/>
						<stop  offset="1" style="stop-color:#1A0F91"/>
					</linearGradient>
					<path style="fill:url(#SVGID_00000072271077162295100120000001962418720161571205_);" d="M1711.939,1488.291
						c0,0-19.038-128.347,87.524-108.716l21.546,22.433c0,0,52.159-58.74-5.562-103.143
						c-57.721-44.403-137.819-33.032-182.136,47.804c-44.314,80.837-60.398,137.639-23.254,187.869
						c37.145,50.23,65.085,7.15,65.085,7.15s-17.037-43.474-2.901-62.13c14.135-18.655,32.37,10.849,32.37,10.849L1711.939,1488.291
						z"/>
					
						<linearGradient id="SVGID_00000071526672114060050270000001298462549756155578_" gradientUnits="userSpaceOnUse" x1="-8775.873" y1="108.503" x2="-8456.2891" y2="-460.2496" gradientTransform="matrix(-0.9809 -0.1943 -0.1943 0.9809 -6842.7031 -99.2406)">
						<stop  offset="0" style="stop-color:#FEBBBA"/>
						<stop  offset="1" style="stop-color:#FF928E"/>
					</linearGradient>
					<path style="fill:url(#SVGID_00000071526672114060050270000001298462549756155578_);" d="M1697.375,1499.282
						c0,0-9.397-66.034-43.124-47.156c-33.724,18.877,12.155,61.685,30.551,76.249L1697.375,1499.282z"/>
				</g>
				
					<linearGradient id="SVGID_00000024698691540170201570000008982346606933951886_" gradientUnits="userSpaceOnUse" x1="-4699.5215" y1="2076.7893" x2="-4449.3696" y2="2076.7893" gradientTransform="matrix(-1 0 0 1 -3051.5828 0)">
					<stop  offset="0" style="stop-color:#FEBBBA"/>
					<stop  offset="1" style="stop-color:#FF928E"/>
				</linearGradient>
				<path style="fill:url(#SVGID_00000024698691540170201570000008982346606933951886_);" d="M1523.623,1863.382
					c0,0-103.597,165.755-124.316,290.072c-20.719,124.316,176.115,176.115,248.633,103.597l-10.36-51.799
					c0,0-113.957,20.719-124.316-41.439s93.237-186.475,93.237-186.475S1575.421,1884.101,1523.623,1863.382z"/>
				<g>
					
						<linearGradient id="SVGID_00000049909524311937607670000000318121645237082792_" gradientUnits="userSpaceOnUse" x1="2272.3364" y1="1772.3488" x2="1527.931" y2="2410.4106">
						<stop  offset="0" style="stop-color:#09005D"/>
						<stop  offset="1" style="stop-color:#1A0F91"/>
					</linearGradient>
					<path style="fill:url(#SVGID_00000049909524311937607670000000318121645237082792_);" d="M1610.178,2363.48l117.766-411.267
						c1.338-4.669,5.321-8.073,10.144-8.636c21.337-2.49,83.163-9.479,154.549-15.517c85.987-7.273,185.842-13.166,245.512-8.153
						c8.483,0.713,13.609,9.685,9.837,17.316c-33.932,68.65-173.507,347.898-243.403,439.377c-2.315,3.03-5.897,4.803-9.71,4.766
						l-273.238-2.542C1613.685,2378.751,1607.99,2371.123,1610.178,2363.48z"/>
					<path style="fill:#7D97F4;" d="M1904.852,1892.406l85.384-14.226c4.547-0.758,8.271,3.588,6.827,7.964l-8.453,25.611
						c-0.737,2.23-2.681,3.843-5.008,4.154l-82.164,10.975c-4.25,0.569-7.755-3.294-6.777-7.47l5.232-22.36
						C1900.457,1894.646,1902.414,1892.812,1904.852,1892.406z"/>
					<path style="fill:#7D97F4;" d="M1840.921,1964.69l7.033-36.638c0.707-3.676,3.741-6.452,7.463-6.829l172.453-17.5
						c5.805-0.59,10.453,4.73,9.09,10.403l-10.964,45.654c-0.878,3.653-4.057,6.292-7.81,6.48l-168.521,8.485
						C1844.179,1975.019,1839.886,1970.083,1840.921,1964.69z"/>
					
						<linearGradient id="SVGID_00000183236343722652626700000002754963374167214724_" gradientUnits="userSpaceOnUse" x1="7490.1543" y1="2194.3896" x2="7647.0493" y2="2194.3896" gradientTransform="matrix(1 0 0 1 -5862.8833 0)">
						<stop  offset="0" style="stop-color:#FEBBBA"/>
						<stop  offset="1" style="stop-color:#FF928E"/>
					</linearGradient>
					<path style="fill:url(#SVGID_00000183236343722652626700000002754963374167214724_);" d="M1638.632,2264.117
						c0,0-16.406-67.455-9.788-91.388c6.617-23.932,19.438-54.703,62.174-47.865c42.737,6.838,93.148,24.841,93.148,24.841
						s-2.546,31.173-35.026,21.116l20.141,15.584c0,0-2.879,24.961-30.315,11.626l18.733,20.669c0,0-11.782,20.499-31.967,7.351
						C1705.548,2212.902,1695.873,2272.24,1638.632,2264.117z"/>
				</g>
			</g>
		</g>
		<g>
			<g>
				<rect x="693.928" y="2789.225" style="fill:#7D97F4;" width="35.802" height="387.17"/>
				<path style="fill:#7D97F4;" d="M868.613,3183.86H555.044v-12.086c0-6.196,5.023-11.218,11.218-11.218h291.132
					c6.196,0,11.218,5.022,11.218,11.218V3183.86z"/>
				<path style="fill:#7D97F4;" d="M915.15,2775.786c0,21.176-17.325,38.501-38.501,38.501h-317.25
					c-21.176,0-38.501-17.325-38.501-38.501v-34.812c0-21.175,17.326-38.501,38.501-38.501h317.25
					c21.176,0,38.501,17.326,38.501,38.501V2775.786z"/>
			</g>
			<path style="fill:#91B3FA;" d="M520.898,2727.178c-126.513-400.546,65.888-670.863,48.191-9.382L520.898,2727.178z"/>
			<path style="fill:#7D97F4;" d="M560.914,2720.925c-102.718-374.888-35.199-659.463,54.464-20.843L560.914,2720.925z"/>
			<g>
				<g>
					<g>
						<g>
							<g>
								
									<linearGradient id="SVGID_00000137104770111660079110000014647683682873199543_" gradientUnits="userSpaceOnUse" x1="1069.9601" y1="2367.9675" x2="1098.6573" y2="2735.9683">
									<stop  offset="0" style="stop-color:#09005D"/>
									<stop  offset="1" style="stop-color:#1A0F91"/>
								</linearGradient>
								<path style="fill:url(#SVGID_00000137104770111660079110000014647683682873199543_);" d="M1110.756,3169.231
									c-53.209,0-76.751-4.564-87.277-8.728c2.045,8.738,9.828,15.637,19.662,15.637h188.236c6.339,0,10.34-6.068,8.825-11.562
									C1218.746,3166.303,1173.173,3169.231,1110.756,3169.231z"/>
								
									<linearGradient id="SVGID_00000053532678436727336620000015698341362687309204_" gradientUnits="userSpaceOnUse" x1="1190.7035" y1="2750.9663" x2="1131.4006" y2="3160.6965">
									<stop  offset="0" style="stop-color:#4F52FF"/>
									<stop  offset="1" style="stop-color:#4042E2"/>
								</linearGradient>
								<path style="fill:url(#SVGID_00000053532678436727336620000015698341362687309204_);" d="M1240.203,3164.578
									c-0.305-1.107-0.754-2.198-1.542-3.203c-14.338-18.307-43.142-47.057-82.323-46.506
									c-56.156,0.791-74.734,6.425-117.28,0.409c-1.655-0.234-3.263,0.719-3.818,2.296l-11.442,32.523
									c-1.072,3.556-1.091,7.106-0.319,10.405c10.525,4.164,34.068,8.728,87.277,8.728
									C1173.173,3169.231,1218.746,3166.303,1240.203,3164.578z"/>
							</g>
							
								<linearGradient id="SVGID_00000013158946312867483130000017801588773254394809_" gradientUnits="userSpaceOnUse" x1="1037.472" y1="3099.8235" x2="1097.2903" y2="3099.8235">
								<stop  offset="0" style="stop-color:#FEBBBA"/>
								<stop  offset="1" style="stop-color:#FF928E"/>
							</linearGradient>
							<path style="fill:url(#SVGID_00000013158946312867483130000017801588773254394809_);" d="M1049.867,3077.794l-12.395,37.881
								c0,0,28.896,12.454,54.064,1.996l5.754-32.066L1049.867,3077.794z"/>
							
								<linearGradient id="SVGID_00000132052768445616720650000011369549036846608001_" gradientUnits="userSpaceOnUse" x1="1432.819" y1="2216.1116" x2="1225.1854" y2="2474.387">
								<stop  offset="0" style="stop-color:#4F52FF"/>
								<stop  offset="1" style="stop-color:#4042E2"/>
							</linearGradient>
							<path style="fill:url(#SVGID_00000132052768445616720650000011369549036846608001_);" d="M769.705,2578.544
								c0.767-0.892,1.914-1.363,3.086-1.265c26.169,2.186,319.623,27.234,382.045,56.62c62.878,29.6-44.612,429.88-52.836,460.126
								c-0.329,1.209-1.237,2.147-2.431,2.527c-5.4,1.718-22.243,5.282-52.47-3.567c-1.715-0.502-2.808-2.176-2.589-3.95
								c4.018-32.436,37.833-313.769,10.788-382.247c-0.467-1.183-1.547-2.007-2.802-2.213l-336.451-55.031
								c-2.825-0.462-4.056-3.839-2.19-6.01L769.705,2578.544z"/>
						</g>
						<g>
							<g>
								
									<linearGradient id="SVGID_00000104702017427360647240000012763693349241580205_" gradientUnits="userSpaceOnUse" x1="1390.4053" y1="2342.9797" x2="1419.1025" y2="2710.9797">
									<stop  offset="0" style="stop-color:#09005D"/>
									<stop  offset="1" style="stop-color:#1A0F91"/>
								</linearGradient>
								<path style="fill:url(#SVGID_00000104702017427360647240000012763693349241580205_);" d="M1437.379,3141.565
									c-41.478,33.328-62.677,44.533-73.477,47.895c7.042,5.499,17.409,5.976,25.075-0.184l146.738-117.903
									c4.941-3.97,4.277-11.184-0.328-14.497C1519.736,3071.654,1486.035,3102.471,1437.379,3141.565z"/>
								
									<linearGradient id="SVGID_00000080884652184819435090000007268449509689069239_" gradientUnits="userSpaceOnUse" x1="1484.4392" y1="2793.4836" x2="1425.1368" y2="3203.2102">
									<stop  offset="0" style="stop-color:#4F52FF"/>
									<stop  offset="1" style="stop-color:#4042E2"/>
								</linearGradient>
								<path style="fill:url(#SVGID_00000080884652184819435090000007268449509689069239_);" d="M1535.387,3056.877
									c-0.929-0.668-1.959-1.233-3.199-1.521c-22.59-5.222-62.966-9.486-93.166,15.483c-44.241,36.58-55.96,53.946-94.899,76.698
									l13.54,33.651c1.382,3.43,3.579,6.198,6.238,8.272c10.8-3.363,31.999-14.568,73.477-47.895
									C1486.035,3102.471,1519.736,3071.654,1535.387,3056.877z"/>
							</g>
							
								<linearGradient id="SVGID_00000165228125217451241440000012899079651638240423_" gradientUnits="userSpaceOnUse" x1="1312.4727" y1="3107.8567" x2="1382.5828" y2="3107.8567">
								<stop  offset="0" style="stop-color:#FEBBBA"/>
								<stop  offset="1" style="stop-color:#FF928E"/>
							</linearGradient>
							<path style="fill:url(#SVGID_00000165228125217451241440000012899079651638240423_);" d="M1312.473,3086.97
								c2.958,2.695,31.652,60.567,31.652,60.567s31.944-6.911,38.458-27.127l-28.743-52.233L1312.473,3086.97z"/>
							
								<linearGradient id="SVGID_00000099643075518540903430000012049158988547542190_" gradientUnits="userSpaceOnUse" x1="1131.8708" y1="2644.2415" x2="621.5098" y2="3222.8901">
								<stop  offset="0" style="stop-color:#4F52FF"/>
								<stop  offset="1" style="stop-color:#4042E2"/>
							</linearGradient>
							<path style="fill:url(#SVGID_00000099643075518540903430000012049158988547542190_);" d="M579.059,2574.462
								c0,0-10.381,24.979-9.958,58.174c0.586,45.907,37.493,83.16,83.347,85.449l376.591,17.174
								c7.953,0.363,14.681,5.866,16.674,13.574c8.849,34.23,52.105,139.345,263.548,349.094c5.626,5.58,14.39,6.53,21.089,2.298
								l30.1-19.013c3.16-1.995,4.168-6.138,2.279-9.363l-219.271-374.438c-11.517-19.006-30.03-32.736-51.561-38.24
								l-320.972-82.047L579.059,2574.462z"/>
						</g>
					</g>
					
						<linearGradient id="SVGID_00000119829360325469991970000002423064789780602540_" gradientUnits="userSpaceOnUse" x1="1055.4445" y1="2087.8362" x2="892.283" y2="2047.585">
						<stop  offset="0" style="stop-color:#FEBBBA"/>
						<stop  offset="1" style="stop-color:#FF928E"/>
					</linearGradient>
					<path style="fill:url(#SVGID_00000119829360325469991970000002423064789780602540_);" d="M1015.942,1997.959
						c0,0-106.099,62.928-147.23,97.482l85.017,47.435c0,0,45.941-53.068,89.708-75.182L1015.942,1997.959z"/>
					<g>
						
							<linearGradient id="SVGID_00000021809508848456992120000017775269116250421896_" gradientUnits="userSpaceOnUse" x1="1396.7302" y1="1632.155" x2="1325.8346" y2="1753.6907">
							<stop  offset="0" style="stop-color:#FF928E"/>
							<stop  offset="1" style="stop-color:#FE7062"/>
						</linearGradient>
						<path style="fill:url(#SVGID_00000021809508848456992120000017775269116250421896_);" d="M578.531,2577.971
							c31.51,4.141,173.059,21.744,243.713,13.62c2.198-0.253,4.07-1.685,4.924-3.726c10.438-24.951,78.404-184.942,126.751-237.532
							c2.621-2.851,7.197-2.58,9.479,0.549c18.789,25.754,101.949,126.767,261.685,144.518c2.657,0.295,5.21-1.181,6.302-3.621
							l6.127-13.691c1.349-3.015,0.085-6.562-2.874-8.031c-26.903-13.353-148.328-77.75-188.877-171.048
							c-45.711-105.171-64.07-150.028-105.657-177.468c-22.832-15.064-37.588-25.921-46.254-32.649
							c-6.441-5.001-15.297-5.441-22.201-1.102c-50.768,31.904-246.702,173.314-298.406,483.056
							C572.669,2574.281,575.076,2577.517,578.531,2577.971z"/>
						
							<linearGradient id="SVGID_00000180337779076709094680000000479205867387027630_" gradientUnits="userSpaceOnUse" x1="1219.3918" y1="2461.0366" x2="1380.2856" y2="2461.0366">
							<stop  offset="0" style="stop-color:#FEBBBA"/>
							<stop  offset="1" style="stop-color:#FF928E"/>
						</linearGradient>
						<path style="fill:url(#SVGID_00000180337779076709094680000000479205867387027630_);" d="M1219.392,2462.364l19.941-5.315
							l63.741-14.76c7.672-1.777,15.738-0.417,22.405,3.778l54.806,34.481l-151.355-0.255
							C1227.359,2475.285,1223.637,2468.982,1219.392,2462.364z"/>
					</g>
					<g>
						
							<linearGradient id="SVGID_00000102528587126322092200000012321154889399489159_" gradientUnits="userSpaceOnUse" x1="1108.0964" y1="1993.2249" x2="934.1542" y2="2065.1018">
							<stop  offset="0" style="stop-color:#FEBBBA"/>
							<stop  offset="1" style="stop-color:#FF928E"/>
						</linearGradient>
						<path style="fill:url(#SVGID_00000102528587126322092200000012321154889399489159_);" d="M1119.499,1951.811
							c0.297,2.056-27.17,136.654-27.17,136.654l-76.519-17.317l7.08-131.437C1022.889,1939.71,1114.531,1917.384,1119.499,1951.811
							z"/>
						<path style="fill:#FFFFFF;" d="M1040.099,1969l-9.145,68.9c-0.118,0.883-0.117,1.756,0.009,2.638
							c0.772,5.401,4.79,23.787,23.35,18.529c16.842-4.77,32.283-8.873,42.949-5.611c4.788,1.464,7.678,6.316,6.676,11.222
							c-2.499,12.229-8.639,39.681-17.612,62.716c-1.821,4.674-6.94,7.129-11.757,5.726c-14.512-4.231-44.871-14.011-67.45-27.599
							c-3.059-1.842-4.882-5.169-4.731-8.737c0.734-17.394,2.768-70.267,1.056-85.088c-1.608-13.912-18.68-22.245-26.098-25.234
							c-2.432-0.979-4.339-2.896-5.31-5.331c-3.435-8.608-8.171-28.527,16.932-36.69c5.254-1.708,8.023-7.373,6.155-12.572
							c-3.717-10.35-5.285-26.146,14.135-34.849c19.738-8.846,34.479,1.677,42.438,10.228c3.219,3.458,8.383,3.985,12.376,1.462
							c2.273-1.437,5.202-1.907,8.74,0.297c4.768,2.969,11.082,0.945,13.543-4.105c4.727-9.701,14.36-20.094,33.684-16.785
							c34.29,5.872,38.173,43.869,29.127,66.135c-9.046,22.266-45.859,13.786-64.327,2.561c-14.042-8.535-32.256,0.411-40.181,5.19
							C1042.146,1963.515,1040.484,1966.093,1040.099,1969z"/>
						
							<linearGradient id="SVGID_00000040544258442999353640000003214218071448486302_" gradientUnits="userSpaceOnUse" x1="1051.4819" y1="1958.4417" x2="970.6203" y2="2027.0842">
							<stop  offset="0" style="stop-color:#FEBBBA"/>
							<stop  offset="1" style="stop-color:#FF928E"/>
						</linearGradient>
						<path style="fill:url(#SVGID_00000040544258442999353640000003214218071448486302_);" d="M1004.1,2035.301
							c0,0,10.359-37.961-4.123-47.628c-14.483-9.667-35.933-4.648-31.21,23.948C974.642,2047.191,1004.1,2035.301,1004.1,2035.301z
							"/>
					</g>
				</g>
				<g>
					<g>
						
							<linearGradient id="SVGID_00000082327538136149933080000006690137051848702613_" gradientUnits="userSpaceOnUse" x1="21904.5508" y1="-23468.2441" x2="21471.4395" y2="-23049.5078" gradientTransform="matrix(-1.388 -0.0686 -0.0685 1.3855 -4690.1738 -570.6171)">
							<stop  offset="0" style="stop-color:#09005D"/>
							<stop  offset="1" style="stop-color:#1A0F91"/>
						</linearGradient>
						<path style="fill:url(#SVGID_00000082327538136149933080000006690137051848702613_);" d="M1159.865,2508.082
							c0.247,0.012,0.494,0.019,0.743,0.017l323.34-0.323c7.992-0.006,14.465-6.48,14.456-14.46
							c-0.009-7.981-6.519-14.574-14.491-14.432l-323.339,0.324c-7.994,0.006-14.465,6.48-14.456,14.458
							C1146.127,2501.397,1152.218,2507.704,1159.865,2508.082z"/>
					</g>
					<g>
						
							<linearGradient id="SVGID_00000080922265151411738820000005536724661979137697_" gradientUnits="userSpaceOnUse" x1="18929.1738" y1="-23472.1992" x2="18496.0781" y2="-23053.4805" gradientTransform="matrix(0.6475 -1.2297 -1.2274 -0.6463 8775.9707 -5472.2012)">
							<stop  offset="0" style="stop-color:#09005D"/>
							<stop  offset="1" style="stop-color:#1A0F91"/>
						</linearGradient>
						<path style="fill:url(#SVGID_00000080922265151411738820000005536724661979137697_);" d="M1609.168,2191.431
							c-0.115,0.219-0.226,0.44-0.329,0.667l-136.048,293.325c-3.366,7.25-0.224,15.849,7.014,19.205
							c7.241,3.358,15.965,0.234,19.197-7.054l136.047-293.325c3.365-7.251,0.224-15.849-7.014-19.205
							C1621.022,2181.793,1612.735,2184.656,1609.168,2191.431z"/>
					</g>
				</g>
				<g>
					<path style="fill:#7D97F4;" d="M1303.837,2524.311c-1.413,5.852-136.329,511.85-170.534,640.129
						c-3.943,14.785,7.067,29.301,22.198,29.301l0,0c10.55,0,19.746-7.27,22.301-17.63l149.766-607.219L1303.837,2524.311z"/>
					<path style="fill:#7D97F4;" d="M1377.716,2524.311c1.414,5.852,136.329,511.85,170.535,640.129
						c3.942,14.785-7.068,29.301-22.199,29.301l0,0c-10.55,0-19.746-7.27-22.301-17.63l-149.766-607.219L1377.716,2524.311z"/>
					<path style="fill:#7D97F4;" d="M1383.338,2507.765h-84.026v67.479c0,9.698,7.768,17.561,17.35,17.561h11.527v151.57
						c0,7.342,5.881,13.294,13.135,13.294l0,0c7.255,0,13.136-5.952,13.136-13.294v-151.57h5.85
						c12.717,0,23.028-10.434,23.028-23.306V2507.765z"/>
					
						<linearGradient id="SVGID_00000168115750454276887500000006078217914468034958_" gradientUnits="userSpaceOnUse" x1="1447.3259" y1="2224.397" x2="895.3514" y2="3616.9912">
						<stop  offset="0" style="stop-color:#4F52FF"/>
						<stop  offset="1" style="stop-color:#4042E2"/>
					</linearGradient>
					<path style="fill:url(#SVGID_00000168115750454276887500000006078217914468034958_);" d="M1092.708,2491.556h469.179
						c6.557,0,12.284,4.49,13.923,10.916l6.55,25.687c2.358,9.244-4.571,18.243-14.005,18.189l-481.427-2.801
						c-9.331-0.054-16.14-8.95-13.861-18.106l5.698-22.886C1080.374,2496.088,1086.12,2491.556,1092.708,2491.556z"/>
				</g>
			</g>
		</g>
	</g>
</g>
</svg>
