<svg width="20" height="20" viewBox="0 0 20 20" fill="none" xmlns="http://www.w3.org/2000/svg">
<path d="M2.18335 0.103027L1.77435 0.48878L0.752941 1.51019L0.367188 1.91919L0.662132 2.39575L2.18335 4.93838L2.38749 5.30161H4.52257L7.42843 8.18496C4.83204 10.793 1.52881 14.1071 1.41257 14.2241C0.2742 15.3617 0.27202 17.2258 1.43437 18.3104C2.56983 19.4306 4.42014 19.4597 5.49894 18.3104L5.52073 18.2872L9.99285 13.7925L14.4882 18.3097L14.5558 18.3555C15.6963 19.4306 17.5103 19.4452 18.5746 18.3097V18.2879H18.5964C19.7093 17.1495 19.721 15.2992 18.5746 14.2233L18.5513 14.2015L14.7606 10.4326C17.3113 10.1944 19.309 8.04039 19.3461 5.43819H19.3686C19.3715 5.42366 19.3686 5.40695 19.3686 5.39242V5.3699C19.4398 4.53011 19.2582 3.72664 18.8238 3.03141L18.3254 2.26063L14.9423 5.64305L13.9209 4.57587L17.3716 1.12516L16.3727 0.716891C15.7355 0.436577 15.0477 0.289483 14.3516 0.284644C11.5591 0.284644 9.26639 2.57737 9.26639 5.3699C9.26639 5.67356 9.33177 5.93727 9.37972 6.2097C9.06225 6.52789 8.82397 6.78869 8.44911 7.16355L5.56577 4.2802V2.12333L5.20254 1.91919L2.65991 0.397972L2.18335 0.103027ZM14.3516 1.73757C14.4534 1.73757 14.5245 1.79714 14.6241 1.80586L11.8773 4.55263L12.3764 5.07496L14.4199 7.18607L14.919 7.70839L17.8024 4.82505C17.8169 4.99214 17.936 5.11419 17.9157 5.30161V5.3699C17.9157 7.37059 16.284 9.00223 14.2834 9.00223C14.0167 9.00223 13.6935 8.93975 13.3302 8.86565L12.9438 8.79809L12.6713 9.07052L4.4768 17.2883H4.45356V17.3115C3.93776 17.876 3.03477 17.8898 2.43325 17.2883V17.2658H2.41001C1.84554 16.75 1.83174 15.847 2.43325 15.2455C2.70859 14.9694 8.04012 9.59212 10.651 6.98193L10.9467 6.68698L10.8326 6.27798C10.7637 5.98 10.7257 5.67569 10.7193 5.3699C10.7193 3.36922 12.351 1.73757 14.3516 1.73757ZM2.41001 1.91919L4.11284 2.96385V3.69031L3.95447 3.84868H3.22801L2.18335 2.14657L2.41001 1.91919ZM13.0346 10.7501L17.5532 15.2455V15.268H17.575C18.1402 15.7838 18.154 16.6868 17.5532 17.2883H17.5299V17.3115C17.0141 17.876 16.1111 17.8898 15.5096 17.2883L11.0143 12.7711L13.0346 10.7501Z" fill="black"/>
</svg>
