<svg width="82" height="17" viewBox="0 0 82 17" fill="none" xmlns="http://www.w3.org/2000/svg">
<path d="M7.8607 0.443359L10.1059 5.14844L15.2744 5.82976L11.4934 9.41898L12.4426 14.5451L7.8607 12.0583L3.27876 14.5451L4.22797 9.41898L0.446958 5.82976L5.61555 5.14844L7.8607 0.443359Z" fill="#FBBC05"/>
<path d="M24.2513 0.443359L26.4965 5.14844L31.6651 5.82976L27.8841 9.41898L28.8333 14.5451L24.2513 12.0583L19.6694 14.5451L20.6186 9.41898L16.8376 5.82976L22.0062 5.14844L24.2513 0.443359Z" fill="#FBBC05"/>
<path d="M40.642 0.443359L42.8871 5.14844L48.0557 5.82976L44.2747 9.41898L45.2239 14.5451L40.642 12.0583L36.06 14.5451L37.0092 9.41898L33.2282 5.82976L38.3968 5.14844L40.642 0.443359Z" fill="#FBBC05"/>
<path d="M57.0326 0.443359L59.2777 5.14844L64.4463 5.82976L60.6653 9.41898L61.6145 14.5451L57.0326 12.0583L52.4506 14.5451L53.3998 9.41898L49.6188 5.82976L54.7874 5.14844L57.0326 0.443359Z" fill="#FBBC05"/>
<path d="M73.4232 0.443359L75.6684 5.14844L80.8369 5.82976L77.0559 9.41898L78.0051 14.5451L73.4232 12.0583L68.8413 14.5451L69.7905 9.41898L66.0095 5.82976L71.178 5.14844L73.4232 0.443359Z" fill="#D9D9D9"/>
<mask id="mask0_129_3088" style="mask-type:alpha" maskUnits="userSpaceOnUse" x="66" y="0" width="10" height="15">
<rect x="66.0264" y="0.443359" width="9.39143" height="14.3529" fill="#D9D9D9"/>
</mask>
<g mask="url(#mask0_129_3088)">
<path d="M73.3519 0.523438L75.5971 5.22852L80.7657 5.90984L76.9846 9.49905L77.9339 14.6252L73.3519 12.1384L68.77 14.6252L69.7192 9.49905L65.9382 5.90984L71.1068 5.22852L73.3519 0.523438Z" fill="#FBBC05"/>
</g>
</svg>
