<svg width="41" height="41" viewBox="0 0 41 41" fill="none" xmlns="http://www.w3.org/2000/svg">
<path d="M11.4508 7.21168L8.59111 4.38436C8.32857 4.1248 7.90324 4.1248 7.64042 4.38436L0.524408 11.4371L0.504883 11.4571L1.47994 12.376L8.11689 5.79952L10.2141 7.87311C9.58031 10.0735 9.47397 12.7966 10.9711 14.2829C12.0897 15.3592 13.5946 15.9501 15.1536 15.9251C15.3612 15.9251 15.5708 15.9153 15.782 15.8957V15.896C16.0412 15.8718 16.2629 15.7016 16.3515 15.4593C16.4401 15.2167 16.3798 14.9455 16.1965 14.7624L13.6706 12.2474L14.8144 9.60616L17.4803 8.47262L19.9699 10.9278C20.1435 11.1407 20.4307 11.2267 20.6941 11.1448C20.9578 11.063 21.1441 10.8299 21.1642 10.5569C21.3652 8.8105 20.7707 7.06589 19.5424 5.79747C18.0354 4.3073 15.2806 4.41658 13.0644 5.04198L8.59177 0.611099C8.32503 0.360754 7.90721 0.360754 7.64048 0.611099L0.528383 7.66652L1.47968 8.60863L8.11632 2.02621L12.3983 6.26833V6.26803C12.577 6.44485 12.8404 6.50766 13.0807 6.43086C15.0359 5.80486 17.496 5.65868 18.5879 6.74162C19.1499 7.30928 19.5401 8.02162 19.7143 8.79791L18.1048 7.21104C17.9102 7.01875 17.617 6.96308 17.3647 7.07024L14.0347 8.4839C13.8758 8.55147 13.7493 8.67679 13.6814 8.83396L12.2555 12.1351C12.1471 12.3855 12.2032 12.6757 12.397 12.8686L14.0016 14.4689C13.2146 14.2977 12.4934 13.9069 11.9233 13.3428C10.7593 12.1899 11.0306 9.68562 11.6157 7.89185C11.6947 7.65253 11.631 7.38938 11.4508 7.21167L11.4508 7.21168Z" fill="#9868EF"/>
<path d="M33.4982 4.61118L29.9751 8.10171C28.0668 7.58822 26.4182 7.85493 25.4099 8.85452C24.2895 9.96397 24.163 12.0831 24.2612 13.1026L24.2615 13.1029C24.2609 13.3851 24.4402 13.6372 24.7088 13.7319C24.977 13.8265 25.2768 13.7435 25.4564 13.5241L27.0593 11.9357L28.6444 12.2497L28.9613 13.8214L27.3127 15.4559C27.1295 15.6387 27.0691 15.9099 27.1574 16.1522C27.2457 16.3945 27.4671 16.5648 27.7258 16.5895C27.9438 16.61 28.1778 16.6207 28.4214 16.6207C29.6819 16.6207 31.1921 16.3234 32.0705 15.4539C33.0797 14.4537 33.3489 12.8207 32.8295 10.9299L33.9734 9.79636L39.5532 15.3259L40.5045 14.3832L34.4488 8.38209C34.1821 8.13174 33.7646 8.13174 33.4975 8.38209L31.5946 10.2678V10.2675C31.4162 10.4446 31.3528 10.706 31.4306 10.9444C31.6715 11.6844 32.1251 13.5137 31.1191 14.5112C30.6496 14.8949 30.0771 15.1345 29.4718 15.2006L30.1669 14.5112C30.3252 14.3537 30.394 14.129 30.3507 13.9111L29.8755 11.5505C29.8224 11.2868 29.6142 11.0805 29.3481 11.0278L26.9696 10.5563C26.7497 10.5134 26.5227 10.5816 26.3641 10.7384L25.6654 11.4305C25.7315 10.8304 25.9736 10.2628 26.362 9.79747C27.3712 8.79729 29.2135 9.25005 29.9605 9.48878H29.9602C30.2008 9.56588 30.4646 9.50307 30.6433 9.32596L33.9739 6.02541L39.5537 11.5549L40.505 10.6122L34.4493 4.61114H34.4496C34.1868 4.35097 33.7609 4.35097 33.498 4.61114L33.4982 4.61118Z" fill="#9868EF"/>
<path d="M10.6283 33.3814C10.2982 33.716 10.1144 34.1658 10.1168 34.6334C10.1189 35.1014 10.3072 35.5494 10.6403 35.8807L12.3225 37.5476C12.6589 37.8804 13.1149 38.0674 13.5901 38.0674C14.0656 38.0674 14.5215 37.8804 14.8579 37.5476C14.9979 37.4045 15.2151 37.3667 15.3962 37.4542C15.9835 37.7599 16.5974 38.0123 17.2304 38.2091C17.4193 38.2745 17.5449 38.4526 17.5413 38.6511C17.5425 39.1208 17.7317 39.5712 18.0669 39.9031C18.4025 40.2353 18.8569 40.4223 19.331 40.4235H21.7076C22.1825 40.4229 22.6382 40.2356 22.974 39.9028C23.3098 39.57 23.4988 39.1185 23.4994 38.6478C23.4958 38.4493 23.621 38.271 23.8103 38.2058C24.4432 38.009 25.0572 37.7566 25.6444 37.4509C25.8256 37.364 26.0427 37.4021 26.1827 37.5456C26.5191 37.8781 26.9748 38.0647 27.4497 38.0647C27.9247 38.0647 28.3804 37.8781 28.7168 37.5456L30.3989 35.8786C30.732 35.5476 30.9201 35.0999 30.9225 34.6323C30.9249 34.1649 30.7413 33.7152 30.4115 33.3809L30.3974 33.3654C30.2529 33.2264 30.2148 33.0115 30.3034 32.8322C30.6161 32.2426 30.8741 31.6258 31.0739 30.9896C31.1403 30.8098 31.3181 30.6946 31.5113 30.7063C31.9862 30.706 32.4416 30.519 32.7777 30.1865C33.1135 29.8537 33.3028 29.4028 33.3037 28.9321V27.7545C33.3037 27.5777 33.2328 27.4081 33.1066 27.283C32.9804 27.158 32.8092 27.0878 32.6308 27.0878H29.9394V23.7538C29.9379 23.2478 29.7426 22.7611 29.3927 22.3923C29.043 22.0238 28.5651 21.8002 28.0554 21.7675C28.4125 21.3847 28.6048 20.8786 28.5909 20.3574C28.5771 19.8359 28.3584 19.3405 27.9815 18.9768C27.6048 18.6131 27.0992 18.4095 26.573 18.4095C26.0468 18.4095 25.5415 18.6131 25.1646 18.9768C24.7876 19.3406 24.5689 19.8359 24.5554 20.3574C24.5416 20.8786 24.7335 21.3846 25.091 21.7675C24.8804 21.7797 24.6728 21.8246 24.4764 21.9008C24.3616 21.4776 24.1099 21.1037 23.7597 20.836C23.4094 20.5684 22.9802 20.4223 22.538 20.4199H22.2809C22.8375 19.9424 23.1724 19.2598 23.2079 18.5312C23.243 17.8025 22.9757 17.0913 22.4677 16.5633C21.9598 16.0352 21.2557 15.7363 20.5195 15.7363C19.7832 15.7363 19.0792 16.0352 18.5712 16.5633C18.0632 17.0914 17.7959 17.8025 17.831 18.5312C17.8665 19.2599 18.2014 19.9425 18.758 20.4199H18.5009C18.0585 20.4217 17.6289 20.5675 17.2784 20.8352C16.9276 21.1025 16.6755 21.4766 16.5605 21.9003C16.364 21.8238 16.1568 21.7785 15.9462 21.7669C16.3034 21.3838 16.4956 20.8781 16.4818 20.3565C16.468 19.8353 16.2493 19.34 15.8723 18.9762C15.4953 18.6122 14.9901 18.4086 14.4639 18.4086C13.9376 18.4086 13.4324 18.6122 13.0554 18.9762C12.6784 19.34 12.4597 19.8353 12.4459 20.3565C12.4321 20.878 12.6244 21.3837 12.9815 21.7669C12.4724 21.8002 11.9948 22.0238 11.6454 22.3926C11.2961 22.7614 11.1008 23.2481 11.0996 23.7538V27.0878H8.4082C8.03664 27.0878 7.73535 27.3863 7.73535 27.7545V28.9321C7.73595 29.4027 7.92489 29.8543 8.26072 30.1871C8.59654 30.5199 9.05222 30.7072 9.52714 30.7078C9.7275 30.7042 9.90742 30.8289 9.97321 31.0164C10.1712 31.6436 10.4262 32.2518 10.735 32.8334C10.8233 33.0126 10.7854 33.2282 10.6406 33.3669L10.6283 33.3814ZM26.5753 19.7531C26.8475 19.7531 27.0929 19.9156 27.1968 20.1648C27.301 20.4139 27.2437 20.7006 27.0511 20.8914C26.8586 21.0822 26.5693 21.1391 26.3179 21.0358C26.0665 20.9328 25.9025 20.6896 25.9025 20.4199C25.9025 20.0517 26.2038 19.7531 26.5753 19.7531ZM24.5568 23.7538C24.5568 23.3856 24.8581 23.087 25.2296 23.087H27.921C28.0995 23.087 28.2707 23.1573 28.3968 23.2823C28.523 23.4073 28.5939 23.577 28.5939 23.7538V27.0877H24.5568V23.7538ZM20.5197 17.086C20.8765 17.086 21.2189 17.2265 21.4713 17.4765C21.7236 17.7265 21.8654 18.0659 21.8654 18.4195C21.8654 18.7732 21.7236 19.1125 21.4713 19.3625C21.2189 19.6126 20.8765 19.7531 20.5197 19.7531C20.1628 19.7531 19.8204 19.6126 19.568 19.3625C19.3157 19.1125 19.1739 18.7732 19.1739 18.4195C19.1739 18.0659 19.3157 17.7265 19.568 17.4765C19.8204 17.2265 20.1628 17.086 20.5197 17.086ZM17.8282 22.4202C17.8282 22.052 18.1295 21.7534 18.5011 21.7534H22.5382C22.7166 21.7534 22.8879 21.8237 23.014 21.9487C23.1402 22.0737 23.2111 22.2434 23.2111 22.4202V27.0877H17.8282V22.4202ZM27.079 28.4213C26.8573 30.5881 25.5606 32.5029 23.6213 33.5279C21.682 34.5528 19.355 34.5527 17.4158 33.5279C15.4765 32.503 14.1801 30.5881 13.9584 28.4213H27.079ZM14.464 19.7531C14.7361 19.7531 14.9815 19.9156 15.0855 20.1648C15.1897 20.4139 15.1323 20.7006 14.9398 20.8914C14.7472 21.0822 14.458 21.1391 14.2065 21.0358C13.9551 20.9328 13.7911 20.6896 13.7911 20.4199C13.7911 20.0517 14.0924 19.7531 14.464 19.7531ZM12.4454 23.7538C12.4454 23.3856 12.7467 23.087 13.1183 23.087H15.8097C15.9881 23.087 16.1593 23.1573 16.2855 23.2823C16.4116 23.4073 16.4825 23.577 16.4825 23.7538V27.0877H12.4454V23.7538ZM9.52723 29.3742C9.28092 29.3739 9.08146 29.1762 9.08116 28.9321V28.4213H12.6142C12.8374 31.0652 14.3909 33.4195 16.7459 34.6816C19.1009 35.9437 21.9395 35.9437 24.2945 34.6816C26.6495 33.4195 28.2033 31.0652 28.4262 28.4213H31.9581V28.9321C31.9563 29.053 31.9055 29.1685 31.8166 29.2515C31.728 29.3349 31.609 29.3789 31.4871 29.3742C31.1095 29.3736 30.7415 29.4914 30.4361 29.7111C30.1306 29.9311 29.9032 30.241 29.7869 30.597C29.613 31.1551 29.3877 31.696 29.1141 32.2134C28.9366 32.5494 28.8717 32.9325 28.9294 33.3076C28.987 33.6823 29.164 34.0294 29.4343 34.2976L29.449 34.3122C29.6226 34.4851 29.6226 34.7644 29.449 34.937L27.7669 36.604C27.5924 36.7766 27.3097 36.7766 27.1352 36.604C26.8651 36.3307 26.5137 36.1506 26.1325 36.0908C25.7516 36.0306 25.3612 36.0938 25.019 36.2706C24.5036 36.5391 23.9647 36.7608 23.409 36.9335C23.0419 37.0484 22.7217 37.277 22.4955 37.5857C22.2696 37.8944 22.1495 38.2671 22.1534 38.6484C22.1528 38.8924 21.9533 39.0901 21.7073 39.0904H19.3313C19.085 39.0901 18.8855 38.8924 18.8852 38.6484C18.8889 38.267 18.769 37.8944 18.5428 37.5857C18.3169 37.277 17.9967 37.0484 17.6297 36.9335C17.074 36.7608 16.5351 36.5391 16.0196 36.2706C15.7637 36.1384 15.4792 36.0696 15.1905 36.0705C14.7066 36.0711 14.2429 36.2631 13.9022 36.604C13.7274 36.7754 13.4462 36.7754 13.2717 36.604L11.5896 34.937C11.416 34.7644 11.416 34.4851 11.5896 34.3122C11.5944 34.308 11.5989 34.3036 11.6031 34.2982C11.8737 34.03 12.0513 33.6832 12.1092 33.3082C12.1672 32.9331 12.1026 32.5494 11.9251 32.2133C11.6542 31.7028 11.4301 31.1688 11.2559 30.6184C11.1402 30.2549 10.9098 29.9376 10.5986 29.7138C10.2874 29.4896 9.91205 29.3706 9.52723 29.3742Z" fill="#9868EF"/>
</svg>
