<svg width="20" height="20" viewBox="0 0 20 20" fill="none" xmlns="http://www.w3.org/2000/svg">
<path d="M11 15.0828H3C2.46957 15.0828 1.96086 14.872 1.58579 14.497C1.21071 14.1219 1 13.6132 1 13.0828V3.08276C1 2.55233 1.21071 2.04362 1.58579 1.66855C1.96086 1.29348 2.46957 1.08276 3 1.08276H17C17.5304 1.08276 18.0391 1.29348 18.4142 1.66855C18.7893 2.04362 19 2.55233 19 3.08276V9.08276" stroke="black" stroke-width="2" stroke-linecap="round" stroke-linejoin="round"/>
<path d="M1 3.08276L10 9.08276L19 3.08276M14 18.0828L19 13.0828M19 13.0828V17.5828M19 13.0828H14.5" stroke="black" stroke-width="2" stroke-linecap="round" stroke-linejoin="round"/>
</svg>
