<svg width="58" height="61" viewBox="0 0 58 61" fill="none" xmlns="http://www.w3.org/2000/svg">
<path d="M43.5357 39.4286C36.9643 43.3715 33.9525 43.8095 32.8572 43.5357C28.9143 34.3357 29.2974 26.5595 30.3926 23.8214C29.0783 24.4786 27.1072 29.0238 26.2857 31.2143L25.4643 29.5714C24.6429 29.5714 24.6429 33.6786 24.6429 35.3214C24.6429 36.6357 24.0953 36.9643 23.8214 36.9643C22.1786 32.0357 17.9072 21.3572 13.9643 18.0714C10.0214 14.7857 5.75 4.65476 4.10715 0C-2.46429 11.1714 3.01191 20.5357 6.57143 23.8214C5.25715 24.4786 1.64286 21.3572 0 19.7143C1.31429 27.6 7.11905 32.8572 9.85715 34.5C7.88574 34.5 5.20239 32.8572 4.10715 32.0357C4.38095 34.2262 6.07857 39.4286 10.6786 42.7143C16.4286 46.8215 16.4286 46.8215 18.8928 50.1072C20.8642 52.7357 16.9762 53.3929 14.7857 53.3929L5.74997 49.2857C3.28569 53.3929 6.5714 59.9643 12.3214 60.7857C16.9214 61.4429 18.619 58.3215 18.8928 56.6786C27.9286 57.5 39.9035 41.4048 43.5357 41.8929C46.4415 42.2834 51.3179 40.9603 53.3929 40.25C54.05 40.25 56.4048 39.7024 57.5 39.4286C56.9524 38.881 55.6929 37.95 55.0357 38.6072C54.2143 39.4286 51.75 34.5 43.5357 39.4286Z" fill="white"/>
</svg>
