<svg width="17" height="19" viewBox="0 0 17 19" fill="none" xmlns="http://www.w3.org/2000/svg">
<g clip-path="url(#clip0_129_3083)">
<path d="M16.9907 9.40593C16.9907 8.66848 16.9328 8.13033 16.8077 7.57227H8.66895V10.9008H13.4462C13.3499 11.7279 12.8298 12.9736 11.674 13.8107L11.6578 13.9221L14.2311 15.9848L14.4094 16.0032C16.0467 14.4386 16.9907 12.1365 16.9907 9.40593Z" fill="#4285F4"/>
<path d="M8.66961 18.1757C11.0101 18.1757 12.9749 17.3784 14.41 16.0032L11.6746 13.8107C10.9427 14.3388 9.96022 14.7076 8.66961 14.7076C6.37731 14.7076 4.43174 13.143 3.73819 10.9805L3.63654 10.9894L0.960774 13.132L0.925781 13.2327C2.35124 16.1625 5.27926 18.1757 8.66961 18.1757Z" fill="#34A853"/>
<path d="M3.738 10.9804C3.555 10.4223 3.4491 9.82435 3.4491 9.20651C3.4491 8.5886 3.555 7.99068 3.72837 7.43261L3.72353 7.31376L1.01423 5.13672L0.925588 5.18034C0.338086 6.39617 0.000976562 7.76149 0.000976562 9.20651C0.000976562 10.6515 0.338086 12.0168 0.925588 13.2326L3.738 10.9804Z" fill="#FBBC05"/>
<path d="M8.66961 3.7063C10.2973 3.7063 11.3953 4.43379 12.0214 5.04174L14.4678 2.57024C12.9653 1.12523 11.0101 0.238281 8.66961 0.238281C5.27926 0.238281 2.35124 2.25133 0.925781 5.18121L3.72857 7.43347C4.43174 5.27093 6.3773 3.7063 8.66961 3.7063Z" fill="#EB4335"/>
</g>
<defs>
<clipPath id="clip0_129_3083">
<rect width="17" height="18" fill="white" transform="translate(0 0.238281)"/>
</clipPath>
</defs>
</svg>
