<svg width="41" height="41" viewBox="0 0 41 41" fill="none" xmlns="http://www.w3.org/2000/svg">
<path d="M35.8682 30.9872C36.931 30.0918 37.6038 28.7451 37.7221 27.2759C37.8405 25.8068 37.3935 24.3506 36.4902 23.2628C35.5872 22.1747 34.3111 21.5552 32.9732 21.5552C31.6353 21.5552 30.3592 22.1747 29.4559 23.2628C28.5528 24.3506 28.1059 25.8068 28.2243 27.2759C28.3426 28.7452 29.0154 30.0918 30.0782 30.9872C28.7276 31.0814 27.4777 31.8074 26.644 32.9829C25.81 31.8075 24.56 31.0814 23.2095 30.9872C24.2722 30.0918 24.945 28.7451 25.0634 27.2759C25.1817 25.8068 24.7347 24.3506 23.8318 23.2628C22.9284 22.1747 21.6523 21.5552 20.3144 21.5552C18.9766 21.5552 17.7004 22.1747 16.7974 23.2628C15.8941 24.3506 15.4471 25.8068 15.5655 27.2759C15.6839 28.7452 16.3567 30.0918 17.4194 30.9872C16.0688 31.0814 14.8189 31.8074 13.9852 32.9829C13.1512 31.8075 11.9016 31.0814 10.5507 30.9872C11.6138 30.0918 12.2866 28.7451 12.4049 27.2759C12.5233 25.8068 12.0763 24.3506 11.173 23.2628C10.27 22.1747 8.9936 21.5552 7.65572 21.5552C6.31813 21.5552 5.04172 22.1747 4.13869 23.2628C3.23537 24.3506 2.7884 25.8068 2.9068 27.2759C3.02517 28.7452 3.69793 30.0918 4.76098 30.9872C3.55752 31.072 2.42823 31.658 1.60218 32.6265C0.776136 33.5953 0.315025 34.8738 0.3125 36.203V39.2811C0.3125 39.5763 0.418755 39.8597 0.608431 40.0684C0.797825 40.2772 1.05458 40.3947 1.3226 40.3947H39.3024C39.5704 40.3947 39.8272 40.2772 40.0166 40.0684C40.2062 39.8597 40.3125 39.5763 40.3125 39.2811V36.203C40.31 34.8744 39.8494 33.5965 39.0243 32.6281C38.1991 31.6597 37.0709 31.073 35.8683 30.9872H35.8682ZM12.9707 38.1676H2.33212V36.203C2.33325 35.4073 2.62044 34.6445 3.13083 34.0815C3.64123 33.5188 4.33342 33.2022 5.05521 33.201C5.61606 33.2112 6.15269 32.9509 6.5244 32.4879C6.89614 32.025 7.06553 31.4058 6.98803 30.7936C6.9108 30.1812 6.5943 29.6369 6.12194 29.3035C5.4351 28.7946 4.99315 27.9712 4.91963 27.0627C4.84579 26.1539 5.1482 25.2572 5.74199 24.6221C6.27269 24.047 6.99445 23.7379 7.73795 23.7667C8.44818 23.8053 9.11869 24.1399 9.61328 24.7035C10.1076 25.2668 10.3892 26.0162 10.4007 26.8001C10.3988 27.8046 9.94471 28.7426 9.18853 29.3034C8.72717 29.6403 8.42028 30.1805 8.3464 30.7852C8.27256 31.3898 8.43912 32 8.80325 32.4596C9.16738 32.9188 9.69358 33.1826 10.2471 33.1832C10.9692 33.1842 11.6611 33.5011 12.1715 34.0638C12.6819 34.6264 12.9694 35.3895 12.9702 36.1853L12.9707 38.1676ZM25.6294 38.1676H14.9909V36.203C14.992 35.4073 15.2795 34.6445 15.7898 34.0815C16.3002 33.5188 16.9922 33.2022 17.7142 33.201C18.2748 33.2112 18.8117 32.9509 19.1834 32.4879C19.5552 32.025 19.7245 31.4058 19.647 30.7936C19.5695 30.1812 19.2533 29.6369 18.781 29.3035C18.1155 28.8129 17.6779 28.0265 17.5823 27.1504C17.4871 26.2742 17.7433 25.3958 18.2844 24.7456C18.8255 24.0952 19.5972 23.7376 20.397 23.7668C21.1072 23.8053 21.7777 24.14 22.272 24.7036C22.7667 25.2669 23.0482 26.0163 23.0595 26.8002C23.0578 27.8047 22.6035 28.7427 21.8476 29.3035C21.3837 29.6394 21.0745 30.1803 20.9995 30.7866C20.9248 31.3927 21.0917 32.0051 21.4572 32.4656C21.8228 32.9257 22.3513 33.1892 22.9062 33.1876C23.6279 33.1889 24.3202 33.5055 24.8305 34.0682C25.3409 34.6308 25.6282 35.3939 25.6292 36.1897L25.6294 38.1676ZM38.2881 38.1676H27.6539V36.203C27.6548 35.4073 27.9422 34.6445 28.4526 34.0815C28.963 33.5188 29.6549 33.2022 30.377 33.201C30.9373 33.21 31.473 32.9487 31.844 32.4854C32.2146 32.0225 32.3831 31.4038 32.3056 30.7921C32.2278 30.1803 31.9116 29.6366 31.4395 29.3035C30.7744 28.8129 30.3364 28.0265 30.2412 27.1503C30.1456 26.2741 30.4021 25.3958 30.9432 24.7455C31.4841 24.0952 32.2557 23.7376 33.0559 23.7668C33.7661 23.8053 34.4363 24.1399 34.9309 24.7035C35.4255 25.2668 35.7071 26.0163 35.7183 26.8001C35.7166 27.8046 35.2623 28.7427 34.5061 29.3035C34.0448 29.6403 33.7379 30.1806 33.664 30.7853C33.5902 31.3899 33.7567 32.0001 34.1209 32.4597C34.485 32.9189 35.0115 33.1827 35.5647 33.1833C36.2868 33.1842 36.9787 33.5011 37.4894 34.0638C37.9998 34.6265 38.287 35.3896 38.2881 36.1853L38.2881 38.1676Z" fill="#9868EF"/>
<path d="M13.3612 21.7982C13.738 21.971 14.172 21.8762 14.46 21.5577L18.6622 16.9298H21.9633L26.157 21.5577C26.4459 21.8768 26.8811 21.9725 27.259 21.7998C27.6369 21.6273 27.883 21.2203 27.8824 20.7692V16.9298H30.6098C31.5043 16.9285 32.3616 16.5361 32.9941 15.8389C33.6266 15.1416 33.9822 14.1965 33.9834 13.2103V4.11011C33.9811 3.12452 33.6249 2.18062 32.9927 1.48432C32.3603 0.788036 31.5035 0.396213 30.6095 0.39502H10.0035C9.10897 0.396262 8.25189 0.78868 7.61942 1.48591C6.9867 2.18313 6.63104 3.12826 6.62988 4.11448V13.2099C6.63101 14.1961 6.98669 15.1412 7.61942 15.8385C8.25186 16.5357 9.10918 16.9281 10.0038 16.9294H12.7311V20.769C12.732 21.2214 12.9809 21.6283 13.3612 21.7982ZM10.0118 14.7027C9.65274 14.7027 9.30834 14.5455 9.05466 14.2655C8.80073 13.9856 8.65811 13.6062 8.65811 13.2103V4.11013C8.65811 3.71429 8.80073 3.33461 9.05466 3.05495C9.30831 2.77501 9.65272 2.61779 10.0118 2.61779H30.6179C30.9769 2.61779 31.3208 2.77501 31.5747 3.05495C31.8286 3.33458 31.9713 3.71427 31.9713 4.11013V13.2103C31.9713 13.6062 31.8286 13.9855 31.5747 14.2655C31.3208 14.5455 30.9767 14.7027 30.6176 14.7027H26.8723C26.3142 14.7027 25.8622 15.201 25.8622 15.8162V18.0788L23.0946 15.0277C22.9046 14.8189 22.6473 14.7021 22.3793 14.7027H18.2419C17.9739 14.7021 17.7165 14.8189 17.5266 15.0277L14.759 18.0788V15.8162C14.759 15.5208 14.6527 15.2374 14.4633 15.0286C14.2737 14.8198 14.0169 14.7027 13.7489 14.7027H10.0118Z" fill="#9868EF"/>
<path d="M15.0613 9.10819C15.0866 9.17499 15.1176 9.2393 15.1543 9.29957C15.1915 9.35985 15.2335 9.41671 15.2794 9.46891C15.3262 9.5208 15.3775 9.56709 15.433 9.60686C15.4874 9.64788 15.5457 9.68236 15.6069 9.7094C15.6681 9.73674 15.7318 9.75756 15.7966 9.77185C15.8625 9.77869 15.9288 9.77869 15.9947 9.77185C16.0607 9.77806 16.1269 9.77806 16.1926 9.77185C16.2563 9.75694 16.3183 9.73612 16.3786 9.7094C16.4397 9.68237 16.4978 9.64819 16.5522 9.60686C16.6077 9.56709 16.6593 9.5208 16.7058 9.46891C16.752 9.41671 16.794 9.35985 16.8309 9.29957C16.869 9.24023 16.9002 9.17591 16.9239 9.10819C16.9515 9.04107 16.9718 8.97085 16.9845 8.89877C17.0124 8.7518 17.0124 8.60019 16.9845 8.45322C16.9558 8.3106 16.9039 8.17452 16.8309 8.05241C16.7948 7.9912 16.7529 7.93434 16.7058 7.88307C16.659 7.83119 16.6077 7.78489 16.5522 7.74512C16.4978 7.7038 16.4397 7.66962 16.3786 7.64258C16.3183 7.61555 16.2563 7.59474 16.1926 7.58013C16.0595 7.54751 15.9217 7.54751 15.7887 7.58013C15.7236 7.59411 15.6599 7.61493 15.5987 7.64258C15.5376 7.66962 15.4792 7.7041 15.4248 7.74512C15.3696 7.78489 15.318 7.83118 15.2715 7.88307C15.2242 7.93434 15.1822 7.9912 15.1461 8.05241C15.1097 8.11268 15.0785 8.177 15.0534 8.2438C15.0286 8.31215 15.0086 8.38206 14.9925 8.45321C14.9699 8.6008 14.9699 8.75118 14.9925 8.89876C15.0117 8.96992 15.0345 9.03982 15.0613 9.10818V9.10819Z" fill="#9868EF"/>
<path d="M21.32 8.67997C21.32 9.29517 20.8677 9.79353 20.3099 9.79353C19.7521 9.79353 19.2998 9.29517 19.2998 8.67997C19.2998 8.06508 19.7521 7.56641 20.3099 7.56641C20.8677 7.56641 21.32 8.06508 21.32 8.67997Z" fill="#9868EF"/>
<path d="M23.7161 9.10791C23.7431 9.17378 23.7741 9.23779 23.8091 9.2993C23.8488 9.35865 23.892 9.41519 23.9382 9.46864C24.1273 9.67588 24.3829 9.7927 24.6495 9.79363C24.7152 9.80047 24.7814 9.80047 24.8474 9.79363C24.9125 9.77965 24.9759 9.75883 25.0373 9.73149C25.0979 9.70321 25.1563 9.66904 25.211 9.62895C25.2656 9.58794 25.3169 9.54164 25.3646 9.49069C25.4096 9.43756 25.4514 9.38101 25.4897 9.32167C25.5638 9.20049 25.6148 9.06409 25.6393 8.92054C25.6475 8.84815 25.6475 8.77483 25.6393 8.70243C25.6393 8.40695 25.5334 8.12359 25.3443 7.91417C25.2969 7.86321 25.2453 7.81723 25.1909 7.7759C25.136 7.73582 25.0779 7.70165 25.017 7.67337C24.7053 7.53293 24.3502 7.57239 24.0701 7.77839C23.7899 7.9847 23.6208 8.33082 23.6191 8.7024C23.6197 8.77573 23.6265 8.84874 23.6394 8.92052C23.6594 8.98546 23.6851 9.04822 23.7161 9.10788L23.7161 9.10791Z" fill="#9868EF"/>
</svg>
