<svg width="41" height="41" viewBox="0 0 41 41" fill="none" xmlns="http://www.w3.org/2000/svg">
<path d="M27.1847 13.2784C27.1847 12.9333 27.4643 12.6536 27.8096 12.6536H32.5733C32.9184 12.6536 33.198 12.9333 33.198 13.2784C33.198 13.6236 32.9184 13.9033 32.5733 13.9033H27.8096C27.4643 13.9038 27.1847 13.6238 27.1847 13.2784ZM24.5604 12.6536H17.9564C17.6113 12.6536 17.3316 12.9333 17.3316 13.2784C17.3316 13.6236 17.6113 13.9033 17.9564 13.9033H24.56C24.9051 13.9033 25.1849 13.6236 25.1849 13.2784C25.1854 12.9333 24.9054 12.6536 24.5604 12.6536ZM4.42117 14.6821V2.9234C4.42117 1.54485 5.54272 0.42334 6.92128 0.42334H26.609C27.9876 0.42334 29.1091 1.54485 29.1091 2.9234V8.05158H35.1093C36.4877 8.05158 37.6093 9.17316 37.6093 10.5516V22.3095C37.6093 22.5768 37.4392 22.8147 37.1863 22.9011C37.1199 22.9234 37.0517 22.9343 36.9845 22.9343C36.7947 22.9343 36.6102 22.8478 36.4899 22.6917L33.2545 18.5048L15.4211 18.5051C14.0425 18.5051 12.921 17.3836 12.921 16.005V10.8768H8.77588L5.54055 15.0638C5.42013 15.2198 5.23581 15.3063 5.04589 15.3063C4.97876 15.3063 4.91045 15.2954 4.8442 15.2731C4.59128 15.1864 4.42117 14.9494 4.42117 14.6821ZM26.6091 10.877H14.1712V16.0052C14.1712 16.6948 14.7318 17.2555 15.4214 17.2555H33.5608C33.7543 17.2555 33.9372 17.3453 34.0554 17.498L36.3591 20.4792L36.3589 10.5522C36.3589 9.86262 35.7983 9.3021 35.1086 9.3021L28.931 9.30227C28.5626 10.2242 27.661 10.877 26.6091 10.877ZM5.67168 12.8506L7.97534 9.86955C8.09371 9.71634 8.27656 9.62686 8.47001 9.62686H26.6094C27.2991 9.62686 27.8596 9.06634 27.8596 8.3767V2.92372C27.8596 2.23414 27.2991 1.67353 26.6094 1.67353L6.92177 1.67383C6.23219 1.67383 5.67156 2.23444 5.67156 2.92401L5.67168 12.8506ZM9.45734 6.27567H14.2211C14.5662 6.27567 14.8459 5.99595 14.8459 5.65086C14.8459 5.30579 14.5662 5.02607 14.2211 5.02607H9.45734C9.11226 5.02607 8.83252 5.30579 8.83252 5.65086C8.83252 5.99595 9.11195 6.27567 9.45734 6.27567ZM17.4698 6.27567H24.0736C24.4187 6.27567 24.6984 5.99595 24.6984 5.65086C24.6984 5.30579 24.4187 5.02607 24.0736 5.02607H17.4698C17.1248 5.02607 16.8451 5.30579 16.8451 5.65086C16.8448 5.99594 17.1248 6.27567 17.4698 6.27567ZM17.0714 37.2189C17.3097 37.9883 17.1778 38.769 16.6996 39.4177C16.2218 40.0664 15.5145 40.4233 14.7093 40.4233H2.79063C1.98501 40.4233 1.27812 40.0661 0.80023 39.4177C0.322356 38.769 0.18986 37.9883 0.428352 37.2189C0.966885 35.4799 2.06984 33.9186 3.53381 32.8221C4.31433 32.2377 5.17175 31.7969 6.07838 31.5048C4.84643 30.6539 4.03673 29.2323 4.03673 27.6249C4.03673 25.0263 6.15082 22.912 8.74981 22.912C11.3486 22.912 13.4629 25.0259 13.4629 27.6249C13.4629 29.2325 12.6535 30.6535 11.4213 31.5048C12.3284 31.7962 13.1852 32.2377 13.9659 32.8221C15.4307 33.9189 16.5329 35.4802 17.0714 37.2189ZM8.74915 31.0881C10.6583 31.0879 12.2133 29.5345 12.2133 27.6253C12.2133 25.7155 10.6598 24.1624 8.75039 24.1624C6.84064 24.1624 5.2875 25.7159 5.2875 27.6253C5.2872 29.5346 6.84 31.0879 8.74915 31.0881ZM15.8776 37.5887C14.905 34.4485 12.0412 32.3389 8.75058 32.3384C5.45993 32.3385 2.59444 34.4485 1.62185 37.5887C1.50055 37.9805 1.56238 38.3462 1.80559 38.6761C2.04881 39.0061 2.38033 39.1734 2.79017 39.1734H14.7088C15.1186 39.1734 15.4501 39.0058 15.6933 38.6761C15.9365 38.3462 15.9989 37.9804 15.8776 37.5887ZM39.8248 39.4177C39.347 40.0664 38.6397 40.4233 37.8345 40.4233H25.9158C25.1101 40.4233 24.4033 40.0661 23.9254 39.4177C23.4476 38.769 23.315 37.9883 23.5539 37.2189C24.0921 35.4799 25.1953 33.9186 26.6593 32.8221C27.4397 32.2377 28.2971 31.7969 29.2039 31.5048C27.9719 30.6539 27.1622 29.2323 27.1622 27.6249C27.1622 25.0263 29.2762 22.912 31.8752 22.912C34.474 22.912 36.5884 25.0259 36.5884 27.6249C36.5884 29.2325 35.7789 30.6535 34.5468 31.5048C35.4539 31.7962 36.3107 32.2377 37.0913 32.8221C38.5555 33.9186 39.6587 35.4799 40.1968 37.2189C40.435 37.9888 40.3028 38.7697 39.8248 39.4177ZM31.8741 31.0879C33.7833 31.0877 35.3381 29.5343 35.3381 27.6251C35.3381 25.7154 33.7847 24.1623 31.8752 24.1623C29.9655 24.1623 28.4124 25.7157 28.4124 27.6251C28.412 29.5345 29.965 31.0877 31.8741 31.0879ZM39.0024 37.5886C38.03 34.4484 35.1661 32.3387 31.8754 32.3382C28.5847 32.3384 25.7194 34.4484 24.7468 37.5886C24.6254 37.9804 24.6873 38.3462 24.9305 38.6759C25.1737 39.006 25.5052 39.1732 25.915 39.1732H37.8336C38.2434 39.1732 38.5751 39.0056 38.8182 38.6759C39.0614 38.3462 39.1238 37.9802 39.0024 37.5886Z" fill="#9868EF"/>
</svg>
