<svg width="41" height="41" viewBox="0 0 41 41" fill="none" xmlns="http://www.w3.org/2000/svg">
<path d="M9.57865 40.3942C9.09849 40.3942 8.70898 40.0286 8.70898 39.5778V30.5986C8.70898 30.1479 9.09845 29.7822 9.57865 29.7822C10.0588 29.7822 10.4483 30.1478 10.4483 30.5986V39.5778C10.4483 40.0289 10.0588 40.3942 9.57865 40.3942Z" fill="#9868EF"/>
<path d="M16.2355 28.9666H2.93058C1.56399 28.9666 0.452148 27.9229 0.452148 26.6401V17.0137C0.452148 16.563 0.841611 16.1974 1.32181 16.1974C1.80201 16.1974 2.19147 16.563 2.19147 17.0137V26.6401C2.19147 27.0229 2.52317 27.3339 2.93065 27.3339H16.2356C16.643 27.3339 16.9747 27.0226 16.9747 26.6401V24.7687C16.9747 24.318 17.3642 23.9523 17.8444 23.9523C18.3246 23.9523 18.7141 24.3179 18.7141 24.7687V26.6401C18.7141 27.9231 17.6022 28.9666 16.2356 28.9666H16.2355ZM17.8443 21.5037C17.3641 21.5037 16.9746 21.1381 16.9746 20.6874V14.0691C16.9746 12.8312 15.9019 11.8242 14.5832 11.8242H4.5826C3.58907 11.8242 2.71384 12.3857 2.35327 13.2545C2.17904 13.6746 1.67465 13.8825 1.22743 13.7187C0.779889 13.5551 0.558443 13.0817 0.732987 12.6618C1.3557 11.1615 2.86699 10.1919 4.58294 10.1919H14.5835C16.861 10.1919 18.7142 11.9315 18.7142 14.0694V20.6877C18.7139 21.1381 18.3244 21.5037 17.8443 21.5037L17.8443 21.5037Z" fill="#9868EF"/>
<path d="M14.365 40.3937H4.79935C4.31919 40.3937 3.92969 40.0281 3.92969 39.5774V28.1494C3.92969 27.6986 4.31915 27.333 4.79935 27.333H9.1475C9.62765 27.333 10.0172 27.6986 10.0172 28.1494C10.0172 28.6001 9.62769 28.9657 9.1475 28.9657H5.66901V38.7615H13.4956V28.9657C13.0155 28.9657 12.626 28.6001 12.626 28.1494C12.626 27.6986 13.0154 27.333 13.4956 27.333H14.3653C14.8455 27.333 15.235 27.6986 15.235 28.1494V39.5774C15.235 40.0284 14.8455 40.3937 14.3653 40.3937H14.365Z" fill="#9868EF"/>
<path d="M14.365 28.9656H4.79935C4.31919 28.9656 3.92969 28.6 3.92969 28.1492V22.4351C3.92969 21.9843 4.31915 21.6187 4.79935 21.6187C5.27955 21.6187 5.66901 21.9843 5.66901 22.4351V27.333H13.4956V18.3537C13.4956 17.903 13.8851 17.5373 14.3653 17.5373C14.8455 17.5373 15.235 17.9029 15.235 18.3537V28.1495C15.235 28.6005 14.8455 28.9658 14.3653 28.9658L14.365 28.9656ZM4.80014 19.1698C4.31999 19.1698 3.93024 18.8042 3.93024 18.3535C3.93024 17.9027 4.31909 17.5371 4.79959 17.5371H4.80052C5.28068 17.5371 5.67018 17.9027 5.67018 18.3535C5.66987 18.8045 5.28041 19.1698 4.80028 19.1698H4.80014Z" fill="#9868EF"/>
<path d="M33.4974 40.3934H31.7581C31.278 40.3934 30.8885 40.0279 30.8885 39.5771C30.8885 39.1264 31.2779 38.7607 31.7581 38.7607H33.4974C33.9775 38.7607 34.367 39.1263 34.367 39.5771C34.367 40.0281 33.9776 40.3934 33.4974 40.3934ZM27.4101 40.3934H1.32181C0.841651 40.3934 0.452148 40.0279 0.452148 39.5771C0.452148 39.1264 0.841611 38.7607 1.32181 38.7607H27.4101C27.8902 38.7607 28.2797 39.1263 28.2797 39.5771C28.2797 40.0281 27.8903 40.3934 27.4101 40.3934Z" fill="#9868EF"/>
<path d="M36.104 40.3953C35.8754 40.3953 35.6509 40.3079 35.489 40.156C35.3272 40.0041 35.2344 39.7936 35.2344 39.579C35.2344 39.3636 35.3272 39.1537 35.489 39.0012C35.6509 38.8493 35.8751 38.7627 36.104 38.7627C36.3326 38.7627 36.5571 38.8493 36.7186 39.0012C36.8804 39.1539 36.9736 39.3636 36.9736 39.579C36.9736 39.7936 36.8804 40.0044 36.7186 40.156C36.5571 40.3079 36.3326 40.3953 36.104 40.3953Z" fill="#9868EF"/>
<path d="M38.7114 40.3953C38.4828 40.3953 38.2583 40.3079 38.0965 40.156C37.9347 40.0032 37.8418 39.7936 37.8418 39.579C37.8418 39.3636 37.9347 39.1537 38.0965 39.0018C38.2583 38.849 38.4825 38.7627 38.7114 38.7627C38.94 38.7627 39.1645 38.8493 39.3261 39.0018C39.4879 39.1537 39.581 39.3633 39.581 39.579C39.581 39.7936 39.4879 40.0044 39.3261 40.156C39.1646 40.3079 38.94 40.3953 38.7114 40.3953Z" fill="#9868EF"/>
<path d="M9.58173 9.37444C6.94428 9.37444 4.79883 7.3605 4.79883 4.88473C4.79883 2.40896 6.94428 0.39502 9.58173 0.39502C12.2192 0.39502 14.3646 2.40896 14.3646 4.88473C14.3646 7.3605 12.2192 9.37444 9.58173 9.37444V9.37444ZM9.58173 2.02757C7.90339 2.02757 6.53807 3.3092 6.53807 4.88466C6.53807 6.46011 7.90339 7.74174 9.58173 7.74174C11.2601 7.74174 12.6254 6.46011 12.6254 4.88466C12.6254 3.30949 11.2598 2.02757 9.58173 2.02757V2.02757Z" fill="#9868EF"/>
<path d="M10.0176 14.2728H9.14798C8.66782 14.2728 8.27832 13.9073 8.27832 13.4565C8.27832 13.0058 8.66778 12.6401 9.14798 12.6401H10.0176C10.4978 12.6401 10.8873 13.0057 10.8873 13.4565C10.8873 13.9075 10.4978 14.2728 10.0176 14.2728Z" fill="#9868EF"/>
<path d="M10.0176 16.7206H9.14798C8.66782 16.7206 8.27832 16.355 8.27832 15.9042C8.27832 15.4535 8.66778 15.0879 9.14798 15.0879H10.0176C10.4978 15.0879 10.8873 15.4535 10.8873 15.9042C10.8873 16.3553 10.4978 16.7206 10.0176 16.7206Z" fill="#9868EF"/>
<path d="M25.6694 6.10927H20.4517C19.9715 6.10927 19.582 5.74368 19.582 5.29291C19.582 4.84219 19.9715 4.47656 20.4517 4.47656H25.6694C26.1496 4.47656 26.5391 4.84215 26.5391 5.29291C26.5391 5.74393 26.1496 6.10927 25.6694 6.10927Z" fill="#9868EF"/>
<path d="M30.0173 9.37538H20.4517C19.9715 9.37538 19.582 9.00979 19.582 8.55903C19.582 8.1083 19.9715 7.74268 20.4517 7.74268H30.0173C30.4975 7.74268 30.887 8.10827 30.887 8.55903C30.887 9.01004 30.4975 9.37538 30.0173 9.37538Z" fill="#9868EF"/>
<path d="M35.2349 10.1911C32.8372 10.1911 30.8867 8.36019 30.8867 6.10944C30.8867 3.85869 32.8371 2.02783 35.2349 2.02783C37.6326 2.02783 39.583 3.85869 39.583 6.10944C39.583 8.36019 37.6326 10.1911 35.2349 10.1911ZM35.2349 3.66054C33.7962 3.66054 32.626 4.75908 32.626 6.10944C32.626 7.4598 33.7963 8.55835 35.2349 8.55835C36.6734 8.55835 37.8437 7.4598 37.8437 6.10944C37.8437 4.7593 36.6734 3.66054 35.2349 3.66054Z" fill="#9868EF"/>
<path d="M35.2348 7.74233C35.1727 7.74233 35.11 7.73621 35.0482 7.72338C34.7916 7.67061 34.5746 7.51173 34.4568 7.29102L33.5872 5.6584C33.3723 5.2552 33.5465 4.7648 33.976 4.56306C34.4052 4.36132 34.928 4.52487 35.1426 4.92807L35.5311 5.6575L39.0391 3.02313C39.4143 2.7415 39.9615 2.79864 40.2615 3.15053C40.5615 3.50271 40.5007 4.01614 40.1258 4.29803L35.7777 7.56329C35.6224 7.68049 35.4304 7.74229 35.2348 7.74229L35.2348 7.74233Z" fill="#9868EF"/>
<path d="M25.6694 15.9047H20.4517C19.9715 15.9047 19.582 15.5391 19.582 15.0883C19.582 14.6376 19.9715 14.272 20.4517 14.272H25.6694C26.1496 14.272 26.5391 14.6376 26.5391 15.0883C26.5391 15.5393 26.1496 15.9047 25.6694 15.9047Z" fill="#9868EF"/>
<path d="M30.0173 19.1698H20.4517C19.9715 19.1698 19.582 18.8042 19.582 18.3535C19.582 17.9027 19.9715 17.5371 20.4517 17.5371H30.0173C30.4975 17.5371 30.887 17.9027 30.887 18.3535C30.887 18.8045 30.4975 19.1698 30.0173 19.1698Z" fill="#9868EF"/>
<path d="M35.2349 19.9869C32.8372 19.9869 30.8867 18.1561 30.8867 15.9053C30.8867 13.6546 32.8371 11.8237 35.2349 11.8237C37.6326 11.8237 39.583 13.6546 39.583 15.9053C39.583 18.1561 37.6326 19.9869 35.2349 19.9869ZM35.2349 13.4564C33.7962 13.4564 32.626 14.555 32.626 15.9053C32.626 17.2557 33.7963 18.3542 35.2349 18.3542C36.6734 18.3542 37.8437 17.2557 37.8437 15.9053C37.8437 14.5552 36.6734 13.4564 35.2349 13.4564Z" fill="#9868EF"/>
<path d="M35.2348 17.5382C35.1727 17.5382 35.11 17.5321 35.0482 17.5193C34.7916 17.4665 34.5746 17.3076 34.4568 17.0869L33.5872 15.4543C33.3723 15.0511 33.5465 14.5607 33.976 14.359C34.4052 14.1572 34.928 14.3208 35.1426 14.724L35.5311 15.4534L39.0391 12.819C39.4143 12.5374 39.9615 12.5945 40.2615 12.9464C40.5615 13.2986 40.5007 13.812 40.1258 14.0939L35.7777 17.3592C35.6224 17.4764 35.4304 17.5382 35.2348 17.5382L35.2348 17.5382Z" fill="#9868EF"/>
<path d="M25.6694 25.7011H20.4517C19.9715 25.7011 19.582 25.3355 19.582 24.8847C19.582 24.434 19.9715 24.0684 20.4517 24.0684H25.6694C26.1496 24.0684 26.5391 24.434 26.5391 24.8847C26.5391 25.3357 26.1496 25.7011 25.6694 25.7011Z" fill="#9868EF"/>
<path d="M30.0173 28.9657H20.4517C19.9715 28.9657 19.582 28.6001 19.582 28.1494C19.582 27.6986 19.9715 27.333 20.4517 27.333H30.0173C30.4975 27.333 30.887 27.6986 30.887 28.1494C30.887 28.6004 30.4975 28.9657 30.0173 28.9657Z" fill="#9868EF"/>
<path d="M35.2349 29.7824C32.8372 29.7824 30.8867 27.9515 30.8867 25.7008C30.8867 23.45 32.8371 21.6191 35.2349 21.6191C37.6326 21.6191 39.583 23.45 39.583 25.7008C39.583 27.9515 37.6326 29.7824 35.2349 29.7824ZM35.2349 23.2518C33.7962 23.2518 32.626 24.3504 32.626 25.7008C32.626 27.0511 33.7963 28.1497 35.2349 28.1497C36.6734 28.1497 37.8437 27.0511 37.8437 25.7008C37.8437 24.3506 36.6734 23.2518 35.2349 23.2518Z" fill="#9868EF"/>
</svg>
