<svg xmlns="http://www.w3.org/2000/svg" viewBox="0 0 553.54 121.88"><defs><style>.cls-1{fill:#fff;}</style></defs><g id="Layer_2" data-name="Layer 2"><g id="IMAGE"><path class="cls-1" d="M10,85.9s12.87,7.35,15.44,7.72,10.66,0,8.09-5.52S23,78.18,22.06,77.81,6.74,65.68,7.47,56.5c0,0,4.78,4.41,9.19,4,0,0-14.94-11.39-16.66-25.73,0,0,9.68,8.45,11.88,7.72s-20.21-16-4-42.53c0,0,3.68,19.37,16.54,32.24S40.89,63.37,40.89,63.37s.81,3.89,2.42-.88-.9-8.8.91-11.52c.76-1.15,1.11,3.94,1.8,3.38.35-.28,1.69-8.4,7-12.75,0,0-4.06,20.71,3.41,33.58,0,0,1.72,3.92,14.58-2.82s15.19-8.45,23.53-4.78c0,0,4.92-1.22,5.51,1,0,0-8.09,1.47-12.87,3.55S75.64,71,70.49,75.42s-24,24.38-37.73,23.4c0,0-2.33,13.48-18.26,4.05C14.5,102.87,7.06,98.34,10,85.9Z"/><path class="cls-1" d="M143.58,41.86a29.53,29.53,0,0,1,21.34,8.82,29.24,29.24,0,0,1,9,21.89q0,13.53-9.1,22.45a31.84,31.84,0,0,1-44,.22q-8.88-8.73-8.88-22.53,0-14.13,10.26-23.06A31.38,31.38,0,0,1,143.58,41.86Zm-1,3.8q-8.49,0-13.66,5.69-6.54,7.13-6.53,21.83,0,14.4,6.62,22.18a17,17,0,0,0,13.57,6q8.78,0,14.14-6Q163,88.28,163,74.45q0-10.64-3.45-17.89a18.4,18.4,0,0,0-7.06-8.25,18.79,18.79,0,0,0-9.92-2.63Z"/><path class="cls-1" d="M210.54,98.16a17.56,17.56,0,0,1-5.86,4.4,15.63,15.63,0,0,1-6.43,1.33A16.35,16.35,0,0,1,186,98.4q-5.22-5.49-5.23-14.11a24.47,24.47,0,0,1,5.79-15.77,18.24,18.24,0,0,1,14.88-7.15c3.43-.13,10.07,3.37,10.07,3.37v-7a58.61,58.61,0,0,0-.32-8.38,3.61,3.61,0,0,0-1-2.13,2.6,2.6,0,0,0-1.7-.56,8.49,8.49,0,0,0-2.93.7l-.55-1.52L216.63,41h1.91V87a63.91,63.91,0,0,0,.32,8.53,3.83,3.83,0,0,0,1,2.15,2.42,2.42,0,0,0,1.64.61,9.21,9.21,0,0,0,3-.74l.47,1.52L213.49,104h-3Zm0-3.06V74.45A13.34,13.34,0,0,0,208.87,69a9.38,9.38,0,0,0-15.54-1.48q-4.2,4.54-4.2,13.3t4.1,13.54q4.11,4.68,9.15,4.7Q206.58,99.08,210.54,95.1Z"/><path class="cls-1" d="M243.54,61V93a14.84,14.84,0,0,0,.54,5,3.82,3.82,0,0,0,1.6,1.85,8.39,8.39,0,0,0,3.86.61V102h-21v-1.57a11.68,11.68,0,0,0,4.51-.57A4,4,0,0,0,234.87,98a12.35,12.35,0,0,0,.67-5V77.66a47.19,47.19,0,0,0-.45-8.4A3.2,3.2,0,0,0,234,67.33a3.48,3.48,0,0,0-2.05-.55,11.65,11.65,0,0,0-3.41.66l-.69-1.57L241.66,61Zm-3.73-20,8.39,7.88-8.44,7.92-8.38-7.88Z"/><path class="cls-1" d="M267.54,69.49Q275,61,281.68,61a10.65,10.65,0,0,1,5.93,1.64,11.2,11.2,0,0,1,3.95,5.4,24.05,24.05,0,0,1,1,8V93.21a14.34,14.34,0,0,0,.73,5.56A4,4,0,0,0,295,100.6a10.67,10.67,0,0,0,4.51.65V103h-21v-2h.87a7.72,7.72,0,0,0,4.25-.85,4.38,4.38,0,0,0,1.69-2.52,23.54,23.54,0,0,0,.19-4.11V77.08q0-5.47-1.54-8c-1-1.64-2.76-2.47-5.21-2.47q-5.64,0-11.25,5.69V93.45c0,2.73.17,4.42.52,5a4.2,4.2,0,0,0,1.81,1.87,11.75,11.75,0,0,0,4.67.59v2h-21v-2h.86c2,0,3.38-.51,4.09-1.56s1.05-3,1.05-6v-15a64.05,64.05,0,0,0-.32-8.87,3.8,3.8,0,0,0-1-2.15,2.62,2.62,0,0,0-1.79-.58,8.17,8.17,0,0,0-2.9.67L252.9,66l11.93-5h2.71Z"/><path class="cls-1" d="M342.54,42V62h-1.71a25,25,0,0,0-3-9.5,15.38,15.38,0,0,0-6.15-5.61,17.79,17.79,0,0,0-8.26-2,11.6,11.6,0,0,0-8,2.8,8.41,8.41,0,0,0-3.16,6.4,7.38,7.38,0,0,0,2,5q2.88,3.31,13.69,8.84a96.58,96.58,0,0,1,12.05,6.92,17.09,17.09,0,0,1,5,5.68,14.35,14.35,0,0,1,1.74,6.85,15.25,15.25,0,0,1-5.54,11.74Q335.67,104,326.94,104a31.81,31.81,0,0,1-5.15-.39,56.63,56.63,0,0,1-6-1.62,27.67,27.67,0,0,0-5.73-1.38,2.48,2.48,0,0,0-1.83.65,5.13,5.13,0,0,0-1,2.74h-1.73V84h1.73c.8,4.29,1.89,7.5,3.24,9.63a15.35,15.35,0,0,0,6.16,5.31,20.13,20.13,0,0,0,9.2,2.12q5.81,0,9.18-2.92a8.57,8.57,0,0,0,2.08-11.32,13.5,13.5,0,0,0-4-4.19q-1.81-1.32-9.89-5.61a97.34,97.34,0,0,1-11.49-6.86,18.71,18.71,0,0,1-5.17-5.64,13.36,13.36,0,0,1-1.76-6.79A14.41,14.41,0,0,1,310,46.64Q315.22,42,323.26,42a27.84,27.84,0,0,1,10.63,2.33,11.47,11.47,0,0,0,3.67,1.11,2.87,2.87,0,0,0,2-.69A5.39,5.39,0,0,0,340.78,42Z"/><path class="cls-1" d="M391,87.31q-1.73,7.92-6.76,12.19a16.83,16.83,0,0,1-23.75-1.38l-.08-.09Q355,92.3,355,82.54q0-9.45,6-15.35a19.74,19.74,0,0,1,14.41-5.91,16.34,16.34,0,0,1,10.35,3.13c2.71,2.09,4.06,4.25,4.06,6.5a3.45,3.45,0,0,1-1.14,2.69,4.66,4.66,0,0,1-3.2,1,5.14,5.14,0,0,1-4.15-1.66,6.61,6.61,0,0,1-1.05-3.5,5.57,5.57,0,0,0-1.87-3.92,7,7,0,0,0-4.52-1.31,9.5,9.5,0,0,0-7.51,3.24q-3.78,4.29-3.78,11.33a21.91,21.91,0,0,0,3.76,12.67,11.68,11.68,0,0,0,10.05,5.49A12.8,12.8,0,0,0,384.59,94q2.57-2,5-7.31Z"/><path class="cls-1" d="M410.54,51.68V69.77s4.72-6.48,6.36-7.29a11.26,11.26,0,0,1,5-1.2q6.35,0,9.65,5.93t3.31,17.52c0,23.1-23.32,37.15-23.32,37.15V120.3a13.8,13.8,0,0,0,9.91-9q2.85-7.23,2.84-23.84,0-11.94-1.49-16.43c-1-3-2.7-4.49-5.1-4.49s-5,2-8.16,6V91q0,5.73,1.28,7.27c.86,1,2.76,1.74,5.72,2.14V102h-21v-1.62c3-.28,4.94-1,5.77-2.2s1.23-3.58,1.23-7.19V51.27c0-2.28-.34-3.75-1-4.45a3.47,3.47,0,0,0-2.61-1,11.44,11.44,0,0,0-3.38.7L395,45l14.12-5h.38Z"/><path class="cls-1" d="M464.11,61.28q9.69,0,15.57,6.91a20.35,20.35,0,0,1,5,13.57,24.22,24.22,0,0,1-2.76,10.92,19.21,19.21,0,0,1-7.58,8.31,21.1,21.1,0,0,1-10.75,2.8,18.53,18.53,0,0,1-15.34-7.22,21.53,21.53,0,0,1-4.81-13.65,23.12,23.12,0,0,1,2.92-11,19.09,19.09,0,0,1,7.67-8A20.58,20.58,0,0,1,464.11,61.28Zm-1.45,2.84a10.11,10.11,0,0,0-5,1.38,9.8,9.8,0,0,0-4,4.84,21.9,21.9,0,0,0-1.54,8.88,29.38,29.38,0,0,0,3.71,15.09q3.71,6.33,9.77,6.35a9.34,9.34,0,0,0,7.46-3.5q2.94-3.51,2.94-12,0-10.68-4.9-16.81A10.27,10.27,0,0,0,462.66,64.12Z"/><path class="cls-1" d="M511.87,61.28q9.69,0,15.57,6.91a20.35,20.35,0,0,1,5,13.57,24.22,24.22,0,0,1-2.76,10.92A19.21,19.21,0,0,1,522.1,101a21.1,21.1,0,0,1-10.75,2.8A18.53,18.53,0,0,1,496,96.57a21.53,21.53,0,0,1-4.81-13.65,23.12,23.12,0,0,1,2.92-11,19.09,19.09,0,0,1,7.67-8A20.58,20.58,0,0,1,511.87,61.28Zm-1.49,2.84a10.11,10.11,0,0,0-5,1.38,9.8,9.8,0,0,0-4,4.84,21.9,21.9,0,0,0-1.54,8.88,29.38,29.38,0,0,0,3.71,15.09q3.75,6.36,9.83,6.37a9.34,9.34,0,0,0,7.46-3.5q2.94-3.51,2.94-12,0-10.68-4.9-16.81A10.27,10.27,0,0,0,510.38,64.12Z"/><path class="cls-1" d="M553.54,40V93.16l-4,27.52-4-27.52V56.76a55.23,55.23,0,0,0-.34-8.33,3.48,3.48,0,0,0-1-2.13,3.18,3.18,0,0,0-1.92-.56,9.77,9.77,0,0,0-3.2.7l-.82-1.54L551.47,40Z"/></g></g></svg>