<svg width="41" height="41" viewBox="0 0 41 41" fill="none" xmlns="http://www.w3.org/2000/svg">
<path d="M39.8661 37.0234L36.9721 34.1295H36.9724C38.1891 32.2424 38.6837 29.9794 38.3653 27.7569C38.0466 25.5344 36.9364 23.5017 35.2385 22.0323C33.5406 20.563 31.3695 19.7563 29.1241 19.7601C28.4515 19.7618 27.7809 19.8355 27.1237 19.98V6.03097C27.1229 5.67906 26.9842 5.34167 26.7372 5.09079L22.4563 0.810134C22.2056 0.563159 21.868 0.424183 21.5161 0.42334H2.4525C1.92254 0.425014 1.41466 0.636273 1.03987 1.01106C0.665081 1.38586 0.453827 1.89373 0.452148 2.42369V34.4297C0.453823 34.9596 0.665081 35.4675 1.03987 35.8423C1.41466 36.2171 1.92254 36.4284 2.4525 36.43H23.3564C24.8757 37.6337 26.7335 38.3316 28.6693 38.426C30.6056 38.5206 32.5225 38.0068 34.1517 36.957L37.0456 39.851V39.8507C37.4232 40.2179 37.9292 40.4233 38.4558 40.4233C38.9824 40.4233 39.4883 40.2179 39.8659 39.8507C40.2407 39.4756 40.4511 38.9672 40.4511 38.4372C40.4511 37.907 40.2407 37.3988 39.8659 37.0237L39.8661 37.0234ZM22.4564 2.69698L24.8503 5.09057H23.1231C22.755 5.09057 22.4564 4.79225 22.4564 4.42388V2.69698ZM2.45266 35.0959C2.08429 35.0959 1.78596 34.7976 1.78596 34.4292V2.42322C1.78596 2.05485 2.08429 1.75652 2.45266 1.75652H21.1226V4.42359C21.1243 4.95355 21.3355 5.46143 21.7103 5.83621C22.0851 6.211 22.593 6.42226 23.1229 6.42394H25.79L25.7903 20.3866C22.97 21.4615 20.8451 23.8356 20.0875 26.7569C19.3301 29.6785 20.0339 32.786 21.9763 35.0956L2.45266 35.0959ZM29.1241 37.0963C27.0021 37.0963 24.9668 36.2535 23.4662 34.7526C21.9657 33.2521 21.1226 31.2171 21.1226 29.0948C21.1226 26.9727 21.9657 24.9375 23.4662 23.4369C24.9668 21.9364 27.0021 21.0933 29.1241 21.0933C31.2464 21.0933 33.2814 21.9364 34.7819 23.4369C36.2828 24.9375 37.1256 26.9727 37.1256 29.0948C37.1256 31.2171 36.2828 33.2521 34.7819 34.7526C33.2814 36.2535 31.2464 37.0963 29.1241 37.0963V37.0963ZM38.9324 38.9033C38.6681 39.1553 38.2534 39.1581 37.9858 38.91L35.2319 36.1427V36.143C35.5659 35.8556 35.8779 35.5436 36.1653 35.2096L38.9259 37.9701V37.9699C39.1844 38.2263 39.1874 38.6435 38.9324 38.9033L38.9324 38.9033Z" fill="#9868EF"/>
<path d="M11.786 20.4274C12.3165 20.4274 12.8253 20.2167 13.2004 19.8416C13.5755 19.4663 13.7864 18.9575 13.7864 18.427V13.7594C13.7834 13.0271 13.5395 12.316 13.0921 11.7361C12.6447 11.1564 12.0188 10.7401 11.311 10.5514C12.0497 9.79653 12.4602 8.78039 12.4527 7.72409C12.4451 6.66808 12.0201 5.65779 11.2708 4.91377C10.5212 4.16947 9.50783 3.75195 8.45182 3.75195C7.3958 3.75195 6.38244 4.16946 5.63286 4.91377C4.88355 5.65779 4.45846 6.66808 4.45096 7.72409C4.44342 8.78039 4.85395 9.79653 5.59263 10.5514C4.88489 10.7401 4.25892 11.1565 3.81154 11.7361C3.36418 12.316 3.12026 13.0271 3.11719 13.7594V18.427C3.11719 18.9575 3.32817 19.4662 3.70325 19.8416C4.07833 20.2167 4.58708 20.4274 5.11762 20.4274H11.786ZM8.45187 5.09054C9.15933 5.09054 9.83773 5.37157 10.3378 5.87199C10.8379 6.3721 11.119 7.05053 11.119 7.75797C11.119 8.46515 10.838 9.14362 10.3378 9.64394C9.83773 10.1441 9.1593 10.4251 8.45187 10.4251C7.74443 10.4251 7.066 10.1441 6.56589 9.64394C6.06578 9.14356 5.78472 8.46512 5.78472 7.75797C5.78472 7.05051 6.06576 6.3721 6.56589 5.87199C7.066 5.37161 7.74443 5.09054 8.45187 5.09054V5.09054ZM4.45101 13.7595C4.45101 13.229 4.66171 12.72 5.03679 12.3449C5.41215 11.9698 5.92091 11.7591 6.45145 11.7591H10.4523C10.9828 11.7591 11.4916 11.9698 11.867 12.3449C12.2421 12.72 12.4528 13.229 12.4528 13.7595V18.4271C12.4528 18.7955 12.1541 19.0938 11.786 19.0938C11.4177 19.0938 11.119 18.7955 11.119 18.4271V15.093C11.119 14.7249 10.8207 14.4263 10.4523 14.4263C10.084 14.4263 9.78562 14.7249 9.78562 15.093V18.4271C9.78785 18.6548 9.82915 18.8803 9.90813 19.0938H6.99565C7.07463 18.8803 7.11593 18.6548 7.11816 18.4271V15.093C7.11816 14.7249 6.81982 14.4263 6.45145 14.4263C6.08307 14.4263 5.78473 14.7249 5.78473 15.093V18.4271C5.78473 18.7955 5.48612 19.0938 5.11774 19.0938C4.74964 19.0938 4.45102 18.7955 4.45102 18.4271L4.45101 13.7595Z" fill="#9868EF"/>
<path d="M24.4597 27.0934C24.6366 27.0934 24.806 27.023 24.931 26.898L26.9315 24.8976C27.1843 24.6361 27.1807 24.22 26.9234 23.963C26.6663 23.7056 26.2502 23.702 25.9887 23.9549L23.9883 25.9553C23.7977 26.1459 23.7405 26.4328 23.8437 26.6817C23.947 26.931 24.1901 27.0934 24.4597 27.0934L24.4597 27.0934Z" fill="#9868EF"/>
<path d="M29.9892 23.9549L23.9879 29.9561C23.8593 30.0803 23.7859 30.2511 23.7842 30.43C23.7828 30.6086 23.8531 30.7808 23.9796 30.9072C24.106 31.0337 24.2782 31.104 24.4568 31.1026C24.6357 31.1009 24.8065 31.0275 24.9307 30.8989L30.9319 24.8976C31.1848 24.6361 31.1812 24.22 30.9238 23.963C30.6668 23.7056 30.2507 23.702 29.9892 23.9549L29.9892 23.9549Z" fill="#9868EF"/>
<path d="M15.792 6.42502H19.1261H19.1259C19.4942 6.42502 19.7928 6.1264 19.7928 5.7583C19.7928 5.38992 19.4942 5.09131 19.1259 5.09131H15.792C15.4236 5.09131 15.125 5.38992 15.125 5.7583C15.125 6.1264 15.4236 6.42502 15.792 6.42502H15.792Z" fill="#9868EF"/>
<path d="M15.792 9.75851H23.1264C23.4948 9.75851 23.7934 9.4599 23.7934 9.09152C23.7934 8.72342 23.4948 8.4248 23.1264 8.4248H15.792C15.4236 8.4248 15.125 8.72342 15.125 9.09152C15.125 9.4599 15.4236 9.75851 15.792 9.75851V9.75851Z" fill="#9868EF"/>
<path d="M15.792 13.0932H23.1264C23.4948 13.0932 23.7934 12.7949 23.7934 12.4265C23.7934 12.0581 23.4948 11.7598 23.1264 11.7598H15.792C15.4236 11.7598 15.125 12.0581 15.125 12.4265C15.125 12.7949 15.4236 13.0932 15.792 13.0932V13.0932Z" fill="#9868EF"/>
<path d="M15.792 16.426H23.1264C23.4948 16.426 23.7934 16.1274 23.7934 15.7593C23.7934 15.3909 23.4948 15.0923 23.1264 15.0923H15.792C15.4236 15.0923 15.125 15.3909 15.125 15.7593C15.125 16.1274 15.4236 16.426 15.792 16.426V16.426Z" fill="#9868EF"/>
<path d="M15.792 19.7595H22.46C22.8284 19.7595 23.1267 19.4609 23.1267 19.0925C23.1267 18.7244 22.8284 18.4258 22.46 18.4258H15.792C15.4236 18.4258 15.125 18.7244 15.125 19.0925C15.125 19.4609 15.4236 19.7595 15.792 19.7595Z" fill="#9868EF"/>
<path d="M19.7858 21.7612H4.44894C4.08056 21.7612 3.78223 22.0596 3.78223 22.4279C3.78223 22.7963 4.08056 23.0947 4.44894 23.0947H19.7858C20.1539 23.0947 20.4525 22.7963 20.4525 22.4279C20.4525 22.0596 20.1539 21.7612 19.7858 21.7612Z" fill="#9868EF"/>
<path d="M18.4519 25.0947H4.44894C4.08056 25.0947 3.78223 25.3933 3.78223 25.7617C3.78223 26.1298 4.08056 26.4284 4.44894 26.4284H18.4519C18.8203 26.4284 19.1187 26.1298 19.1187 25.7617C19.1187 25.3933 18.8203 25.0947 18.4519 25.0947Z" fill="#9868EF"/>
<path d="M4.44894 29.7614H17.7854C18.1535 29.7614 18.4521 29.4628 18.4521 29.0944C18.4521 28.7263 18.1535 28.4277 17.7854 28.4277H4.44894C4.08056 28.4277 3.78223 28.7263 3.78223 29.0944C3.78223 29.4628 4.08056 29.7614 4.44894 29.7614V29.7614Z" fill="#9868EF"/>
<path d="M18.4519 31.7622H4.44894C4.08056 31.7622 3.78223 32.0605 3.78223 32.4289C3.78223 32.7973 4.08056 33.0956 4.44894 33.0956H18.4519C18.8203 33.0956 19.1187 32.7973 19.1187 32.4289C19.1187 32.0605 18.8203 31.7622 18.4519 31.7622Z" fill="#9868EF"/>
</svg>
