<svg width="20" height="17" viewBox="0 0 20 17" fill="none" xmlns="http://www.w3.org/2000/svg">
<path d="M18.2191 0.472168H12.6728C12.1201 0.472576 11.5764 0.612104 11.0918 0.877893C10.6071 1.14368 10.1972 1.52718 9.89974 1.99304C9.60228 1.52718 9.19235 1.14368 8.70772 0.877893C8.22309 0.612104 7.67936 0.472576 7.12663 0.472168H1.58042C1.25865 0.472168 0.950061 0.59999 0.722535 0.827516C0.49501 1.05504 0.367188 1.36363 0.367188 1.6854V12.7778C0.367188 13.0996 0.49501 13.4082 0.722535 13.6357C0.950061 13.8632 1.25865 13.9911 1.58042 13.9911H7.12663C7.7242 13.9911 8.2973 14.2284 8.71985 14.651C9.14239 15.0735 9.37978 15.6466 9.37978 16.2442C9.37978 16.3821 9.43456 16.5144 9.53207 16.6119C9.62958 16.7094 9.76184 16.7642 9.89974 16.7642C10.0376 16.7642 10.1699 16.7094 10.2674 16.6119C10.3649 16.5144 10.4197 16.3821 10.4197 16.2442C10.4197 15.6466 10.6571 15.0735 11.0796 14.651C11.5022 14.2284 12.0753 13.9911 12.6728 13.9911H18.2191C18.5408 13.9911 18.8494 13.8632 19.0769 13.6357C19.3045 13.4082 19.4323 13.0996 19.4323 12.7778V1.6854C19.4323 1.36363 19.3045 1.05504 19.0769 0.827516C18.8494 0.59999 18.5408 0.472168 18.2191 0.472168ZM7.12663 12.9511H1.58042C1.53445 12.9511 1.49037 12.9329 1.45787 12.9004C1.42536 12.8679 1.4071 12.8238 1.4071 12.7778V1.6854C1.4071 1.63943 1.42536 1.59535 1.45787 1.56285C1.49037 1.53034 1.53445 1.51208 1.58042 1.51208H7.12663C7.7242 1.51208 8.2973 1.74947 8.71985 2.17201C9.14239 2.59456 9.37978 3.16766 9.37978 3.76523V13.8446C8.7703 13.2701 7.96419 12.9505 7.12663 12.9511ZM18.3924 12.7778C18.3924 12.8238 18.3741 12.8679 18.3416 12.9004C18.3091 12.9329 18.265 12.9511 18.2191 12.9511H12.6728C11.8352 12.9508 11.0291 13.2707 10.4197 13.8455V3.76523C10.4197 3.16766 10.6571 2.59456 11.0796 2.17201C11.5022 1.74947 12.0753 1.51208 12.6728 1.51208H18.2191C18.265 1.51208 18.3091 1.53034 18.3416 1.56285C18.3741 1.59535 18.3924 1.63943 18.3924 1.6854V12.7778ZM16.6592 4.45851C16.6592 4.59641 16.6044 4.72866 16.5069 4.82617C16.4094 4.92368 16.2771 4.97846 16.1392 4.97846H12.6728C12.5349 4.97846 12.4027 4.92368 12.3052 4.82617C12.2077 4.72866 12.1529 4.59641 12.1529 4.45851C12.1529 4.32061 12.2077 4.18835 12.3052 4.09084C12.4027 3.99333 12.5349 3.93855 12.6728 3.93855H16.1392C16.2771 3.93855 16.4094 3.99333 16.5069 4.09084C16.6044 4.18835 16.6592 4.32061 16.6592 4.45851ZM16.6592 7.23161C16.6592 7.36951 16.6044 7.50177 16.5069 7.59928C16.4094 7.69679 16.2771 7.75157 16.1392 7.75157H12.6728C12.5349 7.75157 12.4027 7.69679 12.3052 7.59928C12.2077 7.50177 12.1529 7.36951 12.1529 7.23161C12.1529 7.09371 12.2077 6.96146 12.3052 6.86395C12.4027 6.76644 12.5349 6.71165 12.6728 6.71165H16.1392C16.2771 6.71165 16.4094 6.76644 16.5069 6.86395C16.6044 6.96146 16.6592 7.09371 16.6592 7.23161ZM16.6592 10.0047C16.6592 10.1426 16.6044 10.2749 16.5069 10.3724C16.4094 10.4699 16.2771 10.5247 16.1392 10.5247H12.6728C12.5349 10.5247 12.4027 10.4699 12.3052 10.3724C12.2077 10.2749 12.1529 10.1426 12.1529 10.0047C12.1529 9.86682 12.2077 9.73456 12.3052 9.63705C12.4027 9.53954 12.5349 9.48476 12.6728 9.48476H16.1392C16.2771 9.48476 16.4094 9.53954 16.5069 9.63705C16.6044 9.73456 16.6592 9.86682 16.6592 10.0047Z" fill="black"/>
</svg>
