<svg width="41" height="41" viewBox="0 0 41 41" fill="none" xmlns="http://www.w3.org/2000/svg">
<path d="M39.5551 11.2181H34.7394C34.2991 11.2181 33.9426 11.5657 33.9426 11.9943V13.2252C32.6154 13.2545 29.7329 13.1833 27.4768 12.1785C24.1014 10.6759 19.0075 10.9599 16.9948 12.7649C16.8473 12.8971 16.6919 13.04 16.5308 13.1908H6.91453V11.9942C6.91453 11.5654 6.55764 11.2181 6.1177 11.2181H1.30171C0.861441 11.2181 0.504883 11.5657 0.504883 11.9942V28.2645C0.504883 28.6933 0.861774 29.0406 1.30171 29.0406H6.1177C6.45158 29.0406 6.73576 28.8399 6.85416 28.5559L16.0486 36.5196C17.0569 37.3929 18.3277 37.8766 19.5875 37.8766C19.7152 37.8766 19.8433 37.8718 19.9704 37.8614C21.0501 37.7759 21.7165 37.3659 22.1344 36.9075C22.7371 37.362 23.4486 37.6138 24.161 37.6138C24.4232 37.6138 24.6857 37.5813 24.9412 37.514C25.4021 37.3942 26.2646 37.0225 26.6195 36.0005C27.0995 36.3403 27.6538 36.516 28.2095 36.516C28.9573 36.516 29.7004 36.2139 30.2388 35.6236C30.6577 35.1646 30.8699 34.599 30.9049 34.0262C31.4806 33.9999 32.07 33.7956 32.5106 33.3433C33.3038 32.5292 33.8864 31.048 32.9188 29.553C32.9028 29.5283 32.8778 29.4945 32.8505 29.4581C33.2364 29.1427 33.5636 28.7496 33.8658 28.3819C33.8915 28.3504 33.9192 28.3169 33.9465 28.2841C33.9575 28.7032 34.3064 29.041 34.7394 29.041H39.555C39.9953 29.041 40.3518 28.6934 40.3518 28.2649V11.9946C40.3518 11.5658 39.9953 11.2181 39.5551 11.2181ZM5.32092 27.4884H2.09894V12.7709H5.32092V27.4884ZM31.3545 32.2748C31.1217 32.5139 30.7111 32.5094 30.477 32.4295C30.3516 32.2407 30.2095 32.0604 30.0307 31.9028L23.8368 26.4488C23.5103 26.1616 23.006 26.1857 22.7114 26.504C22.4159 26.8221 22.4419 27.313 22.7681 27.6002L28.9617 33.0542C29.417 33.4551 29.4553 34.1452 29.0477 34.5919C28.6431 35.036 27.9577 35.0863 27.4898 34.7052L21.1738 29.5742C20.8366 29.3003 20.3329 29.3438 20.0511 29.6729C19.7693 30.0023 19.815 30.4916 20.1525 30.7664L25.1823 34.8527C25.2407 35.8173 24.7707 35.9515 24.5292 36.0142C24.0386 36.1441 23.4619 35.9934 23.0213 35.6227L18.0538 31.4718C17.7196 31.1924 17.2166 31.2301 16.9301 31.5553C16.6433 31.8808 16.682 32.371 17.0159 32.6498L20.9173 35.9102C20.7302 36.0977 20.416 36.2689 19.8416 36.3144C18.8934 36.3888 17.8957 36.0418 17.1082 35.3598L6.91469 26.5315V14.744H14.9404C14.2553 15.4331 13.5715 16.1407 12.9985 16.7407C11.8031 17.9932 11.8237 19.9376 13.0449 21.1672C14.2476 22.3786 16.2265 22.4761 17.5487 21.3904L20.7797 18.7375C24.9343 23.1201 31.1423 29.7365 31.5709 30.3811C32.1573 31.2878 31.615 32.0072 31.3545 32.2748ZM33.9428 26.1515C33.4274 26.4374 33.0185 26.9287 32.6212 27.412C32.3681 27.7203 32.0932 28.0459 31.8261 28.2635C29.2274 25.3588 22.9125 18.6958 21.4336 17.1381C21.1438 16.8333 20.6598 16.8031 20.3346 17.0715L16.5216 20.2023C15.8375 20.7647 14.8138 20.714 14.1908 20.0867C13.5587 19.4503 13.548 18.4444 14.1664 17.7966C15.062 16.8581 16.2284 15.6573 17.2327 14.6928C17.4595 14.6171 17.6373 14.4508 17.7196 14.2324C17.8414 14.1194 17.9621 14.0076 18.0749 13.9066C19.4568 12.6672 23.8481 12.2695 26.8151 13.5905C29.3523 14.7204 32.4593 14.8117 33.9435 14.7799L33.9428 26.1515ZM38.7584 27.4884H35.5368V12.7709H38.7584V27.4884Z" fill="#9868EF"/>
</svg>
