<svg width="26" height="25" viewBox="0 0 26 25" fill="none" xmlns="http://www.w3.org/2000/svg">
<path d="M12.9868 24.3564C6.9565 24.3564 0.450684 20.5739 0.450684 12.2741C0.450684 3.97435 6.9565 0.191895 12.9868 0.191895C16.337 0.191895 19.4278 1.29421 21.7189 3.30431C24.2045 5.50894 25.5229 8.62136 25.5229 12.2741C25.5229 15.9269 24.2045 19.0177 21.7189 21.2223C19.4278 23.2324 16.3154 24.3564 12.9868 24.3564Z" fill="url(#paint0_radial_16_21750)"/>
<path d="M23.338 5.09131C24.49 6.95011 25.0909 9.16339 25.0909 11.6252C25.0909 15.278 23.7724 18.3688 21.2868 20.5734C18.9957 22.5835 15.8833 23.7075 12.5548 23.7075C8.65126 23.7075 4.54892 22.1188 2.14111 18.7492C4.46678 22.5662 8.8393 24.3559 12.987 24.3559C16.3156 24.3559 19.428 23.232 21.7191 21.2219C24.2047 19.0172 25.5232 15.9264 25.5232 12.2736C25.5232 9.52002 24.7732 7.07331 23.338 5.09131Z" fill="#EB8F00"/>
<path d="M12.9868 24.3564C6.9565 24.3564 0.450684 20.5739 0.450684 12.2741C0.450684 3.97435 6.9565 0.191895 12.9868 0.191895C16.337 0.191895 19.4278 1.29421 21.7189 3.30431C24.2045 5.50894 25.5229 8.62136 25.5229 12.2741C25.5229 15.9269 24.2045 19.0177 21.7189 21.2223C19.4278 23.2324 16.3154 24.3564 12.9868 24.3564Z" fill="url(#paint1_radial_16_21750)"/>
<path d="M23.338 5.09131C24.49 6.95011 25.0909 9.16339 25.0909 11.6252C25.0909 15.278 23.7724 18.3688 21.2868 20.5734C18.9957 22.5835 15.8833 23.7075 12.5548 23.7075C8.65126 23.7075 4.54892 22.1188 2.14111 18.7492C4.46678 22.5662 8.8393 24.3559 12.987 24.3559C16.3156 24.3559 19.428 23.232 21.7191 21.2219C24.2047 19.0172 25.5232 15.9264 25.5232 12.2736C25.5232 9.52002 24.7732 7.07331 23.338 5.09131Z" fill="#EB8F00"/>
<path d="M16.8985 6.17434C15.0721 6.67363 14.0757 8.22552 14.387 10.2097C14.5772 11.433 15.8027 13.8041 19.0534 13.0865C20.9922 12.6586 21.9735 11.2472 21.9367 9.39916C21.9346 9.2846 21.8611 9.2176 21.8395 9.21328C21.8395 9.21328 21.7941 9.2565 21.7206 9.531C21.3488 10.9121 20.3784 12.2025 18.6428 12.3949C16.4706 12.6369 15.3639 11.1283 15.1953 10.0476C14.9727 8.61024 15.7033 7.35231 17.1168 6.96542C17.9533 6.73631 18.766 6.97406 19.3474 7.61816C19.6197 7.92076 19.9137 8.48056 19.8142 9.03388C19.5397 10.5447 18.137 10.5231 17.655 10.1643C17.2876 9.88763 17.1579 9.3127 17.9252 9.12466C18.204 9.05766 18.4439 8.99281 18.5196 8.62321C18.5693 8.38762 18.3747 8.1477 18.1651 8.0418C17.7025 7.8062 17.1168 8.0245 16.7688 8.3271C16.3949 8.65131 16.2393 9.15924 16.3387 9.71904C16.4165 10.1556 16.771 10.7263 17.3827 11.031C18.137 11.4071 20.1255 11.3617 20.5923 9.41213C20.8063 8.51514 20.4151 7.5879 19.9958 7.11023C18.8135 5.77232 17.1968 6.09221 16.8985 6.17434Z" fill="#422B0D"/>
<path d="M9.07487 13.1283C10.9013 12.629 11.8977 11.0771 11.5864 9.09295C11.3962 7.8696 10.1707 5.49854 6.91995 6.21612C4.98117 6.64408 3.9999 8.05548 4.03664 9.90348C4.0388 10.018 4.11229 10.085 4.1339 10.0894C4.1339 10.0894 4.17929 10.0461 4.25278 9.77163C4.62454 8.3905 5.59501 7.10014 7.33062 6.90777C9.50283 6.6657 10.6095 8.17436 10.7781 9.25506C11.0007 10.6924 10.2701 11.9503 8.85657 12.3372C8.0201 12.5663 7.20742 12.3286 6.626 11.6845C6.35366 11.3819 6.05971 10.8221 6.15914 10.2688C6.43363 8.75793 7.83639 8.77955 8.31838 9.13834C8.68582 9.415 8.8155 9.98993 8.0482 10.178C7.76938 10.245 7.52947 10.3098 7.45382 10.6794C7.4041 10.915 7.59863 11.1549 7.80829 11.2608C8.27083 11.4964 8.85657 11.2781 9.20455 10.9755C9.57848 10.6513 9.7341 10.1434 9.63467 9.58359C9.55686 9.14699 9.20239 8.57638 8.59071 8.27162C7.83639 7.89553 5.84789 7.94092 5.38103 9.89051C5.16705 10.7875 5.55827 11.7147 5.97758 12.1924C7.15987 13.5281 8.7766 13.2104 9.07487 13.1283Z" fill="#422B0D"/>
<path d="M20.6581 17.5397C20.336 17.1679 19.3504 16.5001 17.5608 17.3754C17.1631 17.57 16.9534 17.7904 16.2337 17.7385C15.7603 17.7061 15.4059 17.477 14.9995 17.2155C14.4829 16.8826 13.8972 16.5109 12.9894 16.4741C12.0816 16.5109 11.4959 16.8826 10.9793 17.2155C10.5708 17.4792 10.2185 17.7061 9.74516 17.7385C9.02541 17.7904 8.7963 17.6045 8.3986 17.41C6.60896 16.5346 5.64281 17.1679 5.32077 17.5397C5.0333 17.8725 5.22782 18.227 5.75737 17.8488C6.08374 17.6153 6.66948 17.3192 7.99442 18.0671C8.42022 18.307 8.82224 18.6701 9.80567 18.6009C10.5016 18.5512 10.9836 18.2421 11.4483 17.9417C11.9022 17.6478 12.3367 17.3733 12.9894 17.3387C13.6443 17.3733 14.0766 17.6478 14.5305 17.9417C14.9952 18.2421 15.4772 18.5534 16.1732 18.6009C17.1566 18.6701 17.5392 18.2724 17.965 18.0325C19.2899 17.2846 19.8951 17.6153 20.2215 17.8488C20.7489 18.227 20.9455 17.8725 20.6581 17.5397Z" fill="#422B0D"/>
<defs>
<radialGradient id="paint0_radial_16_21750" cx="0" cy="0" r="1" gradientUnits="userSpaceOnUse" gradientTransform="translate(12.9868 12.2741) scale(12.3113 12.3113)">
<stop offset="0.5" stop-color="#FDE030"/>
<stop offset="0.9188" stop-color="#F7C02B"/>
<stop offset="1" stop-color="#F4A223"/>
</radialGradient>
<radialGradient id="paint1_radial_16_21750" cx="0" cy="0" r="1" gradientUnits="userSpaceOnUse" gradientTransform="translate(12.9868 12.2741) scale(12.3113 12.3113)">
<stop offset="0.5" stop-color="#FDE030"/>
<stop offset="0.9188" stop-color="#F7C02B"/>
<stop offset="1" stop-color="#F4A223"/>
</radialGradient>
</defs>
</svg>
