<svg width="25" height="23" viewBox="0 0 25 23" fill="none" xmlns="http://www.w3.org/2000/svg">
<path d="M12.4012 22.7417C6.81092 22.7417 0.779785 19.2352 0.779785 11.541C0.779785 3.84681 6.81092 0.340332 12.4012 0.340332C15.507 0.340332 18.3723 1.36222 20.4962 3.22566C22.8004 5.26943 24.0227 8.15476 24.0227 11.541C24.0227 14.9273 22.8004 17.7926 20.4962 19.8363C18.3723 21.6998 15.4869 22.7417 12.4012 22.7417Z" fill="url(#paint0_radial_16_21735)"/>
<path d="M21.9965 4.88232C23.0644 6.60551 23.6215 8.6573 23.6215 10.9395C23.6215 14.3258 22.3992 17.1911 20.095 19.2348C17.971 21.0983 15.0857 22.1402 12 22.1402C8.38134 22.1402 4.58633 20.6675 2.34619 17.5437C4.50217 21.0822 8.55766 22.7413 12.4008 22.7413C15.4865 22.7413 18.3718 21.6994 20.4957 19.8359C22.8 17.7922 24.0222 14.9269 24.0222 11.5406C24.0222 8.98791 23.3269 6.71972 21.9965 4.88232Z" fill="#EB8F00"/>
<path d="M12.4814 17.7347C10.1751 17.7347 8.52806 16.5325 8.03315 15.7831C7.8468 15.5407 7.80873 15.2161 7.93296 14.9375C8.02714 14.7592 8.21348 14.649 8.41585 14.655C8.48999 14.655 8.56413 14.667 8.63426 14.6891C9.88256 15.0658 11.179 15.2541 12.4814 15.2461C13.7838 15.2541 15.0822 15.0658 16.3285 14.6891C16.3986 14.667 16.4727 14.655 16.5469 14.655C16.7492 14.649 16.9356 14.7592 17.0298 14.9375C17.154 15.2161 17.1159 15.5407 16.9296 15.7831C16.4347 16.5365 14.7876 17.7347 12.4814 17.7347Z" fill="#422B0D"/>
<path d="M24.5031 8.03845C24.5031 8.03845 23.6495 8.05648 23.6495 8.73974C23.6495 10.4269 23.6696 14.0475 19.2414 14.0475C15.7028 14.0475 14.0137 12.2202 13.7292 10.2024C13.613 9.36289 13.3285 8.44921 12.4729 8.44921C11.6173 8.44921 11.3408 9.35688 11.2246 10.2024C10.9401 12.2202 9.25093 14.0475 5.7124 14.0475C1.29224 14.0475 1.30426 10.4269 1.30426 8.73974C1.30426 8.05648 0.450684 8.03845 0.450684 8.03845V6.36736C1.82322 6.18703 3.20577 6.10287 4.58832 6.1149C7.08894 6.1149 8.08478 6.1149 10.0745 6.31527C11.2506 6.43148 12.4789 6.44551 12.4789 6.44551C12.4789 6.44551 13.7012 6.43148 14.8833 6.31527C16.873 6.1149 17.8688 6.1149 20.3695 6.1149C21.752 6.10287 23.1326 6.18903 24.5031 6.36736V8.03845Z" fill="#422B0D"/>
<path d="M3.88886 9.35686C3.86882 9.67745 3.74059 9.974 3.42601 10.0341C3.38994 10.0401 3.35588 10.0441 3.31981 10.0441C3.03729 10.0421 2.79484 9.83775 2.75076 9.55723C2.62853 9.00421 2.76278 8.42514 3.11543 7.98232C3.44003 7.58959 3.92493 7.36318 4.43387 7.36518C4.73643 7.33713 5.00492 7.55954 5.03297 7.8621C5.03297 7.86811 5.03498 7.87412 5.03498 7.88213C5.03498 8.25883 4.73442 8.41913 4.43387 8.52332C4.10526 8.67159 3.89287 8.99619 3.88886 9.35686Z" fill="#896024"/>
<path d="M16.6282 9.35686C16.6102 9.67745 16.4799 9.974 16.1674 10.0341C16.1313 10.0401 16.0952 10.0441 16.0592 10.0441C15.7746 10.0441 15.5322 9.83775 15.4861 9.55723C15.3639 9.00421 15.4981 8.42514 15.8508 7.98232C16.1774 7.58959 16.6603 7.36318 17.1712 7.36518C17.4738 7.33713 17.7423 7.55954 17.7703 7.8621C17.7703 7.86811 17.7723 7.87412 17.7723 7.88213C17.7723 8.25883 17.4718 8.41913 17.1712 8.52332C16.8446 8.67159 16.6322 8.99619 16.6282 9.35686Z" fill="#896024"/>
<defs>
<radialGradient id="paint0_radial_16_21735" cx="0" cy="0" r="1" gradientUnits="userSpaceOnUse" gradientTransform="translate(12.4012 11.541) scale(11.413 11.413)">
<stop offset="0.5" stop-color="#FDE030"/>
<stop offset="0.92" stop-color="#F7C02B"/>
<stop offset="1" stop-color="#F4A223"/>
</radialGradient>
</defs>
</svg>
