<svg width="26" height="24" viewBox="0 0 26 24" fill="none" xmlns="http://www.w3.org/2000/svg">
<path d="M19.2446 0.490723C14.6668 0.490723 12.9849 5.16884 12.9849 5.16884C12.9849 5.16884 11.3259 0.490723 6.71674 0.490723C3.25255 0.490723 -0.696374 3.23616 0.762011 9.47713C2.2204 15.7181 12.9974 23.4927 12.9974 23.4927C12.9974 23.4927 23.7347 15.7181 25.1952 9.47713C26.6536 3.23616 22.9888 0.490723 19.2446 0.490723Z" fill="#F44336"/>
<path d="M6.01019 0.956654C9.60392 0.956654 11.3882 4.81991 11.9649 6.38486C12.0464 6.60842 12.3577 6.61469 12.4517 6.39739L12.9783 5.16675C12.2365 2.7974 10.1973 0.490723 6.7164 0.490723C5.27473 0.490723 3.75157 0.967101 2.56689 1.97209C3.61367 1.28469 4.84014 0.956654 6.01019 0.956654Z" fill="#CC3333"/>
<path d="M19.2448 0.490723C18.1395 0.490723 17.1324 0.731001 16.3468 1.21574C16.8984 1.00262 17.5817 0.956654 18.2586 0.956654C21.6455 0.956654 24.6772 3.5245 23.3086 9.46042C22.1344 14.5564 15.2729 20.7389 13.1772 23.0978C13.0435 23.2482 12.9976 23.4906 12.9976 23.4906C12.9976 23.4906 23.7349 15.716 25.1953 9.47504C26.6537 3.23616 22.9952 0.490723 19.2448 0.490723Z" fill="#CC3333"/>
<path d="M3.16701 3.80188C3.95052 2.82405 5.35041 2.01546 6.53717 2.94732C7.17861 3.45086 6.89863 4.48301 6.32406 4.9176C5.48831 5.55277 4.7612 5.93513 4.25139 6.92967C3.94634 7.52724 3.76248 8.18121 3.66846 8.84772C3.63085 9.11098 3.2861 9.17575 3.15656 8.94383C2.27484 7.38098 2.02412 5.22892 3.16701 3.80188Z" fill="#FF8A80"/>
<path d="M15.7285 5.85772C15.3608 5.85772 15.1017 5.50252 15.2354 5.15986C15.484 4.52887 15.8058 3.91877 16.1923 3.37554C16.7648 2.57321 17.8534 2.10519 18.5429 2.59202C19.2491 3.08929 19.1572 4.08383 18.662 4.56439C17.5985 5.59445 16.2571 5.85772 15.7285 5.85772Z" fill="#FF8A80"/>
</svg>
